<svg xmlns="http://www.w3.org/2000/svg" viewBox="0 0 1323.77 675.99"><defs><style>.cls-1,.cls-4,.cls-5{fill:#fff;}.cls-2,.cls-3{fill:none;}.cls-3,.cls-4{stroke:#fff;stroke-miterlimit:10;stroke-width:3px;}.cls-5{font-size:21px;font-family:MyriadPro-Regular, Myriad Pro;}.cls-6{letter-spacing:0.01em;}.cls-7{letter-spacing:0em;}.cls-8{letter-spacing:-0.04em;}.cls-9{letter-spacing:-0.04em;}.cls-10{letter-spacing:0em;}.cls-11{letter-spacing:0.01em;}.cls-12{letter-spacing:0.06em;}.cls-13{letter-spacing:-0.01em;}.cls-14{letter-spacing:0.01em;}.cls-15{letter-spacing:0em;}.cls-16{letter-spacing:0em;}.cls-17{letter-spacing:-0.09em;}.cls-18{letter-spacing:0.06em;}.cls-19{letter-spacing:-0.01em;}.cls-20{letter-spacing:-0.01em;}.cls-21{letter-spacing:-0.01em;}.cls-22{letter-spacing:0.01em;}.cls-23{letter-spacing:-0.01em;}.cls-24{letter-spacing:-0.01em;}.cls-25{letter-spacing:0em;}.cls-26{letter-spacing:-0.01em;}.cls-27{letter-spacing:0.05em;}.cls-28{letter-spacing:-0.02em;}.cls-29{letter-spacing:0.01em;}.cls-30{letter-spacing:0em;}.cls-31{letter-spacing:0.02em;}</style></defs><g id="Controllers"><g id="Layer_1" data-name="Layer 1"><path class="cls-1" d="M680.42,256.4c-5.9,6.9-10,15.1-13.8,23.3-8.6,19.8-13.7,40.9-16.9,62.2a280.22,280.22,0,0,0-79.4,16.5,238.62,238.62,0,0,0-54,27.4c-7.2,5-14.7,9.8-22,14.7-30,20.1-59.5,40.9-88.2,62.8-19.1,14.7-37.9,29.8-55.7,46-11.3,10.4-22.3,21.2-31.8,33.2-5.8,7.5-11.3,15.5-14.2,24.6a85.19,85.19,0,0,0,5.1,65.3,81.19,81.19,0,0,0,33.3,33.4c17.6,9.7,37.8,13.6,57.7,14.3a216.15,216.15,0,0,0,37.7-2,351,351,0,0,0,50.6-24.3c16.5-9.7,32.4-20.8,46.3-34.1.9-1.1,2.4-.6,3.6-.7-1.2,28.9-.7,58,3.3,86.7,2.4,16.8,6,33.5,12,49.5,4.7,12.3,10.8,24.2,19.2,34.3a92,92,0,0,0,39.4,28.3c19.4,7.1,40.6,7.4,60.7,3.8a198.44,198.44,0,0,0,55.5-19.1c4.4-2.1,8-5.5,11.5-9,8.6-8.8,15.7-18.9,22-29.4,11-18.5,19.6-38.3,26.9-58.5,15.9-44.3,25.6-90.6,32.8-137q6.3-41.25,9.8-82.8c2.4-30.3,3.8-60.8,2.5-91.3-.8-17.8-2.4-35.7-6.1-53.2-3.1-14.2-7.4-28.4-15.2-40.7-2.8-4.2-5.8-8.5-10.1-11.5-15.7-11.3-33.5-19.3-52-24.7a215.19,215.19,0,0,0-70.5-8m1.3,2.9a209.4,209.4,0,0,1,71.7,8.9,166.41,166.41,0,0,1,42.9,20.1c3.7,2.5,7.5,5,10.2,8.6,9.1,11.5,13.9,25.6,17.4,39.7,4.1,17.1,6,34.7,7,52.2,1.7,32,.4,64.1-2.1,96-2.3,28.6-5.8,57-10.1,85.4-7.4,47-17.4,93.8-33.8,138.5-6.8,18.2-14.6,36-24.5,52.7a179.79,179.79,0,0,1-17.5,24.9c-4.9,5.4-9.9,11.1-16.7,14.2a192.63,192.63,0,0,1-57.7,18.9c-19.3,2.9-39.6,2-57.9-5.4-16.7-6.7-30.8-18.9-40.9-33.7-6.9-10.2-11.8-21.5-15.7-33.1a257.24,257.24,0,0,1-10.2-48.4c-3-24.9-3.5-50-2.6-75q1.2-31.35,5-62.4c24.5,5.2,49.7,5.8,74.6,3.2a283.85,283.85,0,0,0,76.3-19.1c-4.8,39.2-8.6,78.7-9.5,118.2a520.3,520.3,0,0,0,1.4,53,222.12,222.12,0,0,0,5.9,36.2c2.1,7.7,4.8,15.3,9.1,22.1,3.1,4.7,7.1,9.2,12.5,11.2,3.8,1.5,8,1,11.8,0,6.6-2.1,11.9-7,16.4-12.1,6.8-7.9,12.1-16.9,16.9-26.1,8.7-16.8,15.7-34.5,22.1-52.3,8.4-23.6,15.6-47.6,22.1-71.8,2.4-9.6,5.4-19.1,6.7-28.9,4.6-28.1,8.6-56.4,11.7-84.7,3.4-31.6,5.8-63.4,6-95.2a446.48,446.48,0,0,0-2.5-50.4c-1.8-14.9-4.4-29.9-9.7-44-2.9-7.3-6.3-14.6-12-20-1.5-1.3-3.2-3.1-5.4-2.7-3.9.5-6.4,4-8.3,7.1-4.4,7.6-6.8,16.1-9.2,24.5a433.79,433.79,0,0,0-9,45.4c-14.3-12.1-31.7-20.2-49.6-25.4-23.3-6.7-47.7-8.8-71.9-7.7,3-19.6,7.6-39,15.1-57.4,3.8-8.9,8.1-17.6,14-25.2m114.4,45.3c1.3-1.7,2.9-3.6,5.1-3.8,1.6.5,2.7,1.8,3.8,2.9,5.2,5.6,8.4,12.7,11,19.8,5.3,15,7.8,30.7,9.4,46.5,3,31.7,2.1,63.7,0,95.4-2.9,41.5-8.3,82.7-14.8,123.8-.8,4.5-1.4,8.9-2.3,13.4q-9,36.6-20.6,72.4a575,575,0,0,1-20.8,55.3,237.1,237.1,0,0,1-14.4,27.9,87.92,87.92,0,0,1-13.7,17.8c-3.5,3.3-7.4,6.3-12.1,7.6-2.8.6-5.9,1-8.6,0-4.6-1.6-8.2-5.3-10.9-9.2-4.6-6.8-7.3-14.6-9.5-22.4-3.3-12.2-4.9-24.8-6-37.4-1.9-22.9-1.6-45.9-.7-68.8a14.34,14.34,0,0,1,1.4-5,235.85,235.85,0,0,0,8.9-29.7c1,.2,2,.4,2.9.6,5.4-2.5,8.9-7.6,10.9-13a296.46,296.46,0,0,0,32.6,4.2c3.4.1,7,.1,10.2-1.3,6-2.6,10.1-8.1,13.1-13.6a70.33,70.33,0,0,0,5.1-12.4c-2.8-16.4-4.3-33.2-2.9-49.9.6-5.6,1.2-11.3,3-16.6,3.7-5.7,7.9-11.2,10.1-17.7,4.8-13.3,8.4-27,12.3-40.6,4.6-16.4,3.5-34.6-4.1-50a78.26,78.26,0,0,0-17.7-23.5c1.5-10.9,3.4-21.8,5.7-32.6a215.87,215.87,0,0,1,7.4-27.3,52.19,52.19,0,0,1,6.2-12.8m-136.4,39.9c24.4-.4,49,2.4,72.1,10.4,16.7,5.8,32.8,14.4,45.4,27,10.8,10.7,18.6,24.8,20.5,40,2.3,16.1-2,32.6-9.7,46.8-8.1,15-19.7,27.9-32.6,38.8-23.7,19.9-51.9,33.9-81.3,43.1a280.36,280.36,0,0,1-63.5,12c-25,1.7-50.5,0-74.7-6.7-18.1-5.1-35.8-13-50.2-25.2-11.5-9.8-20.7-22.7-24.4-37.5-3.7-14.2-2.1-29.3,3.1-42.9,7.1-18.6,20-34.4,34.8-47.5,15-13.3,32.2-24,50.4-32.6a277.66,277.66,0,0,1,98.9-25.2l.9.9c-6,.1-11.9.9-17.9,1.6-.1.1-.3.4-.4.5l.1.3a219.38,219.38,0,0,1,61.1,0c-.1-.2-.2-.7-.3-.9a43.63,43.63,0,0,1-5.2-.5,218,218,0,0,0-37-1.1,4.4,4.4,0,0,0,.2-1c3.2,0,6.5-.3,9.7-.3m-34.4,5.2v-.3c1.2-1.3,3.9-.1,5-1.5l-.1-.3c-8.3,1.1-16.6,2.7-24.7,4.6-.7.2-2.2.1-1.9,1.3,4.9-1.3,9.8-2.2,14.7-3.3a1.85,1.85,0,0,0,.2.7c-7.3,1.4-14.5,3-21.7,5.1,0-.5.1-1.1.1-1.6-6.2,1.8-12.5,3.7-18.6,5.9-.5.1-.4.6-.4.9,5.7-2.2,11.6-3.9,17.4-5.7a7.46,7.46,0,0,1,1.2.7c-9.1,2.2-17.9,5.5-26.7,8.9a210.69,210.69,0,0,0-51.1,29.2c-12.2,9.7-23.2,21-31.4,34.2-6.5,10.5-11,22.3-11.9,34.7a57.57,57.57,0,0,0,6.9,31.8,70.72,70.72,0,0,0,20.1,22.4c15.9,11.6,35,18,54.2,21.3,2.9.4,5.9,1.2,8.9,1,.1.2.2.7.3.9-5.2-.6-10.4-1.4-15.5-2.4-.8-.4-1.4.2-2.1.5a215.91,215.91,0,0,0,29.9,3.6,242.78,242.78,0,0,0,42.6-2l.8-.8c-2.7.2-5.5.7-8.2.8V540c9-.7,17.8-2.5,26.6-4.2a8.75,8.75,0,0,1,1.6.2l-.2-.5c1.4-.3,2.9-.6,4.3-1a3.17,3.17,0,0,0,.6-.5,11.63,11.63,0,0,1,1.8.4h-2.1a6.12,6.12,0,0,0,.5,1.2,8.2,8.2,0,0,1,3.4-.9c.1-.2.2-.7.3-1a15,15,0,0,1-2.2.2c1.9-.5,3.7-1.4,5.7-1.2.7-.8,1.9-.9,2.9-1.3,1.1-.1,2.6-1.1,3.2.6l-.3-1.4a22.5,22.5,0,0,1,2.4-.8,89.43,89.43,0,0,0,12-4.1,67.66,67.66,0,0,0,7.5-2.8c-.3.5-.7,1-1,1.5a214.57,214.57,0,0,0,48.6-26.6c5.2-3.7,10-8,14.9-12.1-.2-.3-.4-.5-.6-.8-9.2,9-20,16.2-30.8,23.1l-1.2.4c3.5-2.5,7.3-4.6,10.8-7.1,12.8-8.8,24.7-19.1,34.4-31.3,9-11.4,16.2-24.7,18.6-39.1a59.12,59.12,0,0,0-3.2-31.7,64.82,64.82,0,0,0-17.9-24.5c-13.7-11.9-31-19-48.5-23.2-.6,0-.4-.6-.4-1a151.38,151.38,0,0,1,23.9,7.7c14.2,6.1,27.7,15,36.9,27.7A57.92,57.92,0,0,1,777,420.2c0,16.1-6.6,31.4-15.7,44.4a120.93,120.93,0,0,1-17.4,19.7c.3.2.5.4.8.6,6.6-6.6,13-13.5,18.2-21.3,9-13.2,15.3-28.8,14.9-44.9a58.2,58.2,0,0,0-8.5-28.9,73.48,73.48,0,0,0-20.7-21.6c-15.6-10.8-34-16.9-52.5-20.2.1.7.7,1,.9,1.6-.7-.1-2.2-.2-2.9-.3.4-.5.8-1,1.3-1.6-.7-.1-2.2-.4-2.9-.5.2.7,1.8,1.1,1,1.9-22.4-3.5-45.5-2.8-68.2.6m-28.1,4.6a4.13,4.13,0,0,1,1.1.7,31.81,31.81,0,0,1,5.1-1.3c-1.9-1.3-4.1.6-6.2.6m-26.4,8.9a217.51,217.51,0,0,0-50,27.5c-13.1,9.8-25.1,21.4-34.2,35.1-7.2,10.9-12.5,23.3-13.6,36.5a58.52,58.52,0,0,0,5.9,31.6c4.5,9.1,11.4,16.8,19.4,23.1,14.3,11.2,31.7,17.7,49.3,21.6.4-.2.7-.5,1.1-.7a90.15,90.15,0,0,1-10.3-2.3,120.43,120.43,0,0,1-32.5-14.1c-12.5-7.9-23.3-19-28.7-32.9a59,59,0,0,1-1.9-36.2c3.3-13,10.1-24.8,18.4-35.1,10.6-13.1,23.8-24.1,37.9-33.3a224.59,224.59,0,0,1,45.9-22.5l-1.2-.6a56.94,56.94,0,0,1-5.5,2.3m102.9,163.1,1.2.6a54.22,54.22,0,0,1,5.6-2.2c0-.1-.1-.3-.1-.4-2.3.1-4.4,1.6-6.7,2m-.9.6c0,.2-.1.6-.1.8,1.1.5,1.1-1.9.1-.8m-2.3.7c-2.3.9-4.7,1.6-7.1,2.5,0,.2.1.6.1.7,2.8-1.1,5.9-1.7,8.6-3.1-.3-.6-1.2-.3-1.6-.1m-8.5,3.8.4-.2c-.1-.3-.2-.8-.3-1-.6.4-.7.8-.1,1.2m-1.8-.3v.8c1.2.8.9-1.9,0-.8m-3.9.7c0,.5-.1,1-.1,1.5.6-1.4,2.8-.4,3.2-1.7-.9-.5-2.1.4-3.1.2m-1.3,1.5a2.35,2.35,0,0,0,.8-.2c0-.7-.3-.9-1.1-.8-.4.5-.4.8.3,1m-1.9.8.5-.2c.7-1.5-2-.5-.5.2m-2,.2h.6c1.4-1-1.9-1-.6,0m-6.6,1.8c.3-.1.8-.2,1.1-.3.4-.7.1-1-.7-.9-.7.4-.8.8-.4,1.2m-2.6,0a1.5,1.5,0,0,0,1.9.2c.1-.9-1.7-1-1.9-.2m-2.2,1.1a15.57,15.57,0,0,1,1.5-.6c-.3-.1-.9-.4-1.2-.5-.5.3-.7.7-.3,1.1m-2.1.3a7.84,7.84,0,0,0,1.4-.2c-.1-.2-.2-.5-.3-.7-.3,0-.9.1-1.2.1-.5.3-.5.6.1.8m-2.6.6c.4-.1,1.2-.2,1.5-.3-.1-.8-1.3-.8-1.9-.7-.3.5-.2.8.4,1m-2.6.5a7.72,7.72,0,0,1,1.5-.2c-.1-.8-1.3-.8-1.9-.7-.3.4-.2.7.4.9m-3.2.5a14.92,14.92,0,0,0,2.1-.2c-.1-1-1.7-.8-2.4-.6-.3.3-.2.6.3.8m-3.9.4a6.66,6.66,0,0,0,2.8-.2c-.1-.9-1.6-.7-2.2-.5a3.74,3.74,0,0,0-.6.7m-3.4.3c1.1.5,2.3,0,3.5.1l-1.1-.8c-.6.4-2.6-.4-2.4.7m32.7-191.4c23.4-.8,47.2,1.9,69.2,10.4,14.8,5.8,29,14.5,38.9,27.2a56.1,56.1,0,0,1,12,32.8c.6,15.3-5.2,30.2-13.6,42.8-8.2,12.3-18.8,22.9-30.5,32a209.35,209.35,0,0,1-46.5,26.9,251.72,251.72,0,0,1-62.6,17.2c-24.3,3.4-49.2,3.3-73.2-2-16.6-3.7-32.9-10-46.5-20.5a67,67,0,0,1-19.4-23.2,56.31,56.31,0,0,1-5.2-31.3c1.4-12.3,6.5-23.9,13.3-34.1,8.6-12.8,19.7-23.8,32-33.1a214.56,214.56,0,0,1,50.7-28,247.78,247.78,0,0,1,81.4-17.1m-20.8,8.5c-5.3,3.9-9.6,9.9-9.9,16.7-.4,5,1.7,9.9,4.7,13.9-5.4,4.9-10.1,11.2-11.1,18.7a18.69,18.69,0,0,0,6.1,16c5.8,5.3,13.6,7.8,21.3,9,11.4,1.6,23,.2,34-3,9.6-2.9,18.9-7.3,26.6-13.8,5.4-4.6,10.3-10.5,12.1-17.5a18.24,18.24,0,0,0-3.3-15.8c-4.4-5.7-11.3-8.7-18.1-10.5a23.42,23.42,0,0,0-8.3-12.6c-6.9-5.7-15.9-8.4-24.7-8.9-10.3-.8-21,1.6-29.4,7.8m-70.4,29.2c-8,1.2-16.2,4.6-21.2,11.2-2.2,3-3.4,7-1.9,10.6,1,2.3,1.3,5,3.1,6.8,3.9,4.2,9.9,5.3,15.4,5.3,8.2-.2,16.6-3,22.7-8.6,3.1-2.9,5.7-7.2,4.8-11.6-.6-2-.4-4.3-1.3-6.2a13,13,0,0,0-7.1-6.1,29.83,29.83,0,0,0-14.5-1.4m17.2,38.9c-7.4,1.5-14.7,4.9-19.8,10.5-3,3.4-5.1,8-4.2,12.6a15.93,15.93,0,0,0,2.1,4.8c.2,1.8.1,3.6.9,5.3,2,4.8,6.9,7.5,11.7,8.7a37.67,37.67,0,0,0,24.5-2.8c5.2-2.4,10.2-6,13-11.1,2-3.5,2.5-8,.5-11.6-.9-1.3-.3-3-.5-4.5-.4-4.4-3.7-8.1-7.6-10-6.2-3.1-13.7-3.3-20.6-1.9m51.2,23.1c-5.1,2.3-10,6.1-11.8,11.5a12.17,12.17,0,0,0,.9,9.5,12.08,12.08,0,0,0,3.1,11c4.6,4.7,11.3,6.7,17.7,7.2,8.7.5,17.9-1.4,25-6.8,3.9-3,7.2-7.8,6.4-13-.1-1.4-1.1-2.7-.7-4.1a11.7,11.7,0,0,0-1.9-9.8c-3-4-7.7-6.4-12.5-7.7a39.35,39.35,0,0,0-26.2,2.2m-65.9,27.2a54.72,54.72,0,0,0-23.3,9.1c-5.4,3.9-10.1,9.4-11.5,16.1a18.5,18.5,0,0,0,4,15.8c4.5,5.5,11.1,8.8,17.8,10.6a58.61,58.61,0,0,0,34.9-2c7.5-2.9,14.8-7.4,19.4-14.1,3.4-4.9,5-11.4,3.2-17.2-2-6.6-7.5-11.5-13.5-14.4-9.5-4.6-20.5-5.5-31-3.9m52.8-125.2c2-.1,3.9-.6,5.8-.8l.1.3c-1.3.9-3.2.7-4.7,1.2a7.46,7.46,0,0,0-1.2-.7m78.6-.1c.4-.2.8-.5,1.2-.7,2.2.5,4.4,1,6.6,1.3-.4.2-.8.5-1.3.7a35.64,35.64,0,0,0-6.5-1.3M652,351c9.7-1.6,20-.5,28.8,4,5.1,2.6,9.8,6.5,12.4,11.7a17.51,17.51,0,0,1,1.3,12.7,22.75,22.75,0,0,1-8.3,11.5c-7,4.7-10,13.1-12.4,20.8-1.6,1.9-4.1,2.4-6.4,2.9a33.35,33.35,0,0,1-16.6-.9c-1.3-.6-3-1.2-3.3-2.7a35.43,35.43,0,0,0-12.9-19.8,24.11,24.11,0,0,1-8-9.9,17.43,17.43,0,0,1-.1-12.9,24.59,24.59,0,0,1,9.3-11.1A39.77,39.77,0,0,1,652,351m1.6,3.2c-5.7.7-11.7,2.1-16.3,5.7-2.5,1.9-4.3,5.2-3.1,8.3,1.6,4,5.8,6.1,9.6,7.6a48.88,48.88,0,0,0,26.8,1.2c4.4-1.1,9.1-2.8,12.2-6.4a6.8,6.8,0,0,0,.8-7.9c-2.1-3.3-5.8-5.2-9.4-6.5a49.84,49.84,0,0,0-20.6-2m.7.6a47.81,47.81,0,0,1,20.2,2.3c3.5,1.4,7.2,3.3,8.8,6.9,1.2,2.8-.5,5.8-2.7,7.6-4.5,3.6-10.4,4.9-16,5.6-7.8.7-16,.1-23.2-3.3-3-1.5-6.2-3.7-6.8-7.2-.4-2.9,1.7-5.3,3.9-6.9,4.6-3.1,10.3-4.4,15.8-5m42.3,18.8c5.7,1.6,11.5,4.3,15.3,9.1a15.52,15.52,0,0,1,2.8,13.6c-1.6,6.2-6,11.4-10.8,15.5a66.14,66.14,0,0,1-13,8.5c2.6-2.8,4.4-6.8,2.8-10.5-2.3-5.5-8-8.4-13.3-10.4a18.15,18.15,0,0,1,5.9-6.7c6.2-4.4,10.7-11.5,10.3-19.1m-133.8,14.1c5.4-.8,11.3-.6,16.2,2,2.8,1.5,5.3,4.2,5.4,7.5.2,4.1-2.4,7.7-5.4,10.2a33.86,33.86,0,0,1-21.8,7.6c-4.8-.1-10.1-1.1-13.7-4.6a8.26,8.26,0,0,1-1.8-9.3c1.8-4.3,5.7-7.5,9.7-9.7a35.46,35.46,0,0,1,11.4-3.7M552,406.3h3c2.7-4.4,5.1-8.9,7.8-13.2-1,0-2,0-3-.1-2.5,4.5-5.2,8.9-7.8,13.3m13.2-13.2c-2.6,4.4-5.3,8.8-7.9,13.2h3.1l7.8-13.2h-3M563,406.3h3.1l7.8-13.2H571c-2.8,4.4-5.4,8.8-8,13.2m57.4.3c.8-6.8,5.3-12.5,10.1-17,3.3,3,7.1,5.5,9.7,9.3-5.4,1.9-11.1,4.5-14,9.7-2,3.5-1,7.9,1.7,10.8,4.6,5,11.4,7.3,17.9,8.8a6,6,0,0,1-.6-1.1c-2.3-.1-4.5-1.1-6.7-1.8-4.5-1.8-9.1-4.3-11.5-8.6a8.37,8.37,0,0,1,.9-9.1c3.2-4.1,8.1-6.3,12.9-8a41.13,41.13,0,0,1,4.4,8.3c-2.3,1.6-4.6,4-4,7,.8,3.6,4.3,5.6,7.5,6.9a37.89,37.89,0,0,0,24,.5c3.5-1.2,7.5-3.1,8.8-6.9,1-3.4-1.8-6.3-4.5-7.9a42.12,42.12,0,0,1,3.4-7.5c4.6,1.9,9.5,4.2,12.2,8.6a8.19,8.19,0,0,1-.4,9c-2.7,3.9-7.1,6.2-11.5,7.9a64.77,64.77,0,0,1-29,2.9c-1.7-.1-3.4-.7-5.1-.7-.8.1.1.7.4.9-7.1-1.3-14.6-3-20.2-7.8a15.58,15.58,0,0,1-6.4-14.2m-60.3-12.4a14.67,14.67,0,0,0,1.4-.6c-2.1,4-4.5,8-6.9,11.9a5.85,5.85,0,0,1-1.3.2c2.2-3.8,4.4-7.7,6.8-11.5m5.6-.2a5,5,0,0,1,1.2-.2c-2.3,3.9-4.5,8-7,11.7a5.85,5.85,0,0,1-1.3.2c2.3-3.9,4.6-7.9,7.1-11.7m4.5,1.5c.5-.8,1-1.9,2.2-1.9-2.2,4-4.5,8-6.9,11.8a5.85,5.85,0,0,1-1.3.2c2-3.3,4.1-6.6,6-10.1m10.9,12c2.1-1.9,3.3-4.4,4.6-6.8.5,3.9-1.8,7.5-4.5,10.1-4.8,4.6-11.3,7.2-17.8,8.2a28.39,28.39,0,0,1-15-1.5c-2.9-1.2-5.5-3.4-6.4-6.4,4.3,4.5,10.8,5.6,16.8,5.4,8.2-.5,16.4-3.3,22.3-9M443.82,439c15.7-11.2,31.4-22.3,47.5-32.9-3.4,3.3-6.5,6.9-9.8,10.3q-56.4,43.05-112.8,86c-10.7,8.1-21.3,16.4-32.2,24.4,14.2-14.7,29.8-28,45.6-41,20-16.2,40.7-31.7,61.7-46.8m232.7-30.9c2.2,1.4,4.6,3.5,4.2,6.4-.7,3.4-4,5.3-6.9,6.5a36.85,36.85,0,0,1-23.2.7c-3.4-1.1-7.4-2.9-8.7-6.6-.8-2.8,1.4-5.1,3.5-6.6.5,1.4.6,2.9,1.4,4.2,1.6,1.9,4.1,2.6,6.4,3.2a37.29,37.29,0,0,0,15.6,0c2.2-.6,4.7-1.3,6.2-3.1.8-1.5.9-3.2,1.5-4.7M333.82,530q72.9-55.65,145.9-111.2c-8.6,10.8-15.9,22.8-19.9,36.1a72.15,72.15,0,0,0-1.8,36.6,71,71,0,0,0,15.2,30.7c-6.2-2.1-12.8-3.5-19.3-2.5a24,24,0,0,0-18.4,13.4,25.52,25.52,0,0,0-1.9,18.4c-.8,7.5-1.9,15-2.6,22.5-.7,11.1,5,22,13.8,28.6a100.47,100.47,0,0,0,24.2,10,162.56,162.56,0,0,0,41.1,5.9q10.65.45,21.3.6c-20.1,18.8-43.9,33.1-68.4,45.1-8.5,4-17.1,8-26,11.2-22,2.8-44.6,3-66.3-2.1-17.2-4.1-33.8-12.1-46.1-25a77.17,77.17,0,0,1-21.2-47.6,80.89,80.89,0,0,1,5.9-38.3c4.9-10.5,12.4-19.5,20.1-28.1a29.82,29.82,0,0,1,4.4-4.3m249.5-104c6-.8,12.3-.4,17.7,2.5,3.3,1.7,6.1,4.8,6.5,8.6.6,4.5-2,8.6-5,11.7-5.6,5.5-13.2,8.5-20.8,9.5-5.8.7-12,.2-17.2-2.6-3.2-1.7-6-4.7-6.5-8.5-.6-4.3,1.8-8.4,4.7-11.4,5.4-5.6,13-8.7,20.6-9.8m-10.1,4.1c-.4.9-.8,1.8-1.1,2.7a43,43,0,0,1,7.4,4.5c-4.1,1.4-8.3,2.8-12,5.2-1.9,1.1-1.9,3.5-2.4,5.4.2-.1.7-.4.9-.5,4.7-3.9,10.7-5.9,16.5-7.7a73,73,0,0,1,10.4,10.4c.4-1.3.9-2.7,1.3-4q-4.05-3.9-8.1-7.5c4.2-1.3,8.6-2.2,12.9-3.4a24.64,24.64,0,0,0,2.2-3.4c-6.1,1.1-12,2.9-18,4.3-3.5-2.1-6.5-4.4-10-6m.3,1.1a92.32,92.32,0,0,1,9.4,5.9q8.1-2.4,16.5-4.2a2.82,2.82,0,0,1-2.3,1.9c-4.3,1-8.6,2.1-12.9,3.4,3,2.7,6,5.4,8.9,8.2-.2.7-.5,1.3-.7,2a112.14,112.14,0,0,0-9.8-9.7c-5.7,1.8-11.5,3.7-16.4,7.3.1-.5.4-1.5.5-2,4.2-3.3,9.4-4.7,14.4-6.4a68.37,68.37,0,0,0-8-5.2,8.4,8.4,0,0,0,.4-1.2m35.2,10.4c2.1,3.4,1.6,7.9-.4,11.2-2.9,5.1-8,8.6-13.3,11-7.3,3.1-15.5,4.3-23.3,2.4-4.1-1-8.3-3.1-10.6-6.8a12.46,12.46,0,0,1-1.6-5.6c5,4.7,12,6.3,18.7,6.1a39.35,39.35,0,0,0,23.1-8.2,21.87,21.87,0,0,0,7.4-10.1m33.8,4.9c7.3-1,15.1-.3,21.6,3.4,3.6,2.1,6.9,5.5,7.2,9.8.4,4.6-2.6,8.7-6.1,11.4-6.5,4.9-14.9,6.9-22.9,6.6-5.7-.2-11.5-1.6-16.1-5-3-2.2-5.4-5.5-5.3-9.3,0-4,2.5-7.6,5.5-10.1a30.92,30.92,0,0,1,16.1-6.8m7.9,7.6c-3.5.7-7,1.3-10.4,2.3-3.7,1.5-7.8.6-11.7.8-.4.9-.9,1.8-1.3,2.7,3.6.1,7.3-.2,10.9.1,5.2,3.3,10.3,6.7,15.5,10,.3-.9.6-1.8.9-2.6a63.78,63.78,0,0,0-12.6-8.6c.3-.6,1-.6,1.5-.8a102.61,102.61,0,0,1,16.6-2.7v-2.6c-2.8.4-5.7,1-8.6,1.2m13.5,19.3a21.59,21.59,0,0,0,7.1-7.9,11.67,11.67,0,0,1-2.7,11.8c-5,5.7-12.6,8.4-20,9.2-7.9.8-16.6-.3-23-5.3a12,12,0,0,1-4.8-11.1c4.4,5.8,11.8,8.4,18.8,9a38.67,38.67,0,0,0,24.6-5.7m105.1,24.9a133,133,0,0,0,19.6-25.8c-2.3,7.2-4.3,14.4-7.3,21.4a98.21,98.21,0,0,1-9.1,14.5,340.14,340.14,0,0,1-29,35.5c-5.4,5.8-11.5,10.9-17.2,16.3-6,5.7-12,11.6-16.9,18.4-2.4,3.4-4.7,7.2-5.2,11.4a8.23,8.23,0,0,0,3.2,7.6,25.44,25.44,0,0,0,3.8,1.6c-1.8,3.9-4.3,7.6-8.2,9.7l-10.2-1.8c1.7-20.9,4-41.8,6.6-62.6,26-11.1,50.4-26.1,69.9-46.2m-200.7-21.8c9.4-.9,19.2.2,27.8,4.5,5.3,2.7,10.2,7,12.1,12.9,1.8,5.1.6,10.9-2.3,15.4-4.3,6.7-11.2,11.2-18.4,14.1a57.45,57.45,0,0,1-33.3,2.7c-6.9-1.6-13.8-4.8-18.5-10.3a17.22,17.22,0,0,1-3.9-14.6c1.2-6,5.3-11,10.1-14.7,7.5-5.8,16.9-9,26.4-10M711,508.4a4.35,4.35,0,0,0,.7.4,8.16,8.16,0,0,0-2.6,1.4l-1.2.4c1-.7,2.1-1.4,3.1-2.2m-3.6,2.1a4.35,4.35,0,0,0,.7.4c-6.5,3.1-12.8,6.9-19.5,9.4.3-.5,1-.6,1.5-.9,4.7-2.1,9.2-4.3,13.7-6.7a20.52,20.52,0,0,0,3.6-2.2m50.3,33.1c4.2-8.8,8.7-17.4,13.5-25.9-2.5,16.9-1.5,34.1.9,51,.3,2.3.9,4.6,1,6.9-2.3,7-5.4,14.1-10.7,19.5-3.6,3.7-9,6-14.2,4.7-1.9-.6-4.5-1-5.2-3.2-1.9-5-.7-10.4.3-15.4,3.1-13.2,8.7-25.5,14.4-37.6m-75.8-20.4a23.81,23.81,0,0,1,5.9-2.5,30.75,30.75,0,0,1-5.9,2.5m-243.1,6.9c4.3-5.9,11.6-9.2,18.8-9.4a40.2,40.2,0,0,1,17.7,4c2.5,2.4,4.8,5,7.4,7.3-7.5-3.9-16.1-6.5-24.6-5.7a30.28,30.28,0,0,0-19.8,10.1,12.47,12.47,0,0,0-2.9,4.5c-.5,2-.8,4-1.2,6-.7-5.9,1.3-11.9,4.6-16.8M739,552.8c8.7-8,16.3-17.1,23.9-26.1-6.8,13.2-13.3,26.5-18.4,40.4-2.3,6.5-4.4,13.1-5.2,20-.4,4.2-.4,8.7,1.9,12.4-10.5-1.1-21-2.7-31.3-4.8-1-.2-1.4-1.2-1.8-2-1-2.8.3-5.6,1.5-8.1,3.3-6,8-11.1,12.8-16,5.3-5.5,10.9-10.7,16.6-15.8M439,540.2a27.29,27.29,0,0,1,19.6-11.1c8.7-.8,17.3,2.3,24.8,6.5a110.48,110.48,0,0,1,23.5,17.3c6.5,6.1,13.1,12.5,21.4,15.9,4.3,2,9.1,2.7,13.5,4.2,0,.4-.1,1.1-.1,1.4a408.73,408.73,0,0,1-43.5-12.7c-6.6-2.4-12.9-5.6-19.7-7.6-9.1-2.7-18.9-4.4-28.4-2.6a24.08,24.08,0,0,0-14.8,8.7c.7-5.6,1.4-11.2,2.4-16.7a10.33,10.33,0,0,1,1.3-3.3m127.3,0a215.36,215.36,0,0,0,38.5.7,2.88,2.88,0,0,1,1.6.3,219.75,219.75,0,0,1-38.9-.2,8.34,8.34,0,0,0-1.2-.8m-61.6,6.6a21,21,0,0,1,5,2.9l10.2,8.7c6,5.6,13.9,8.7,21.7,11a6.73,6.73,0,0,1,1.1.7c-5.1-1.3-10.2-2.4-14.9-4.7-9.1-4.4-15.8-12-23.1-18.6m9,4.3a170.48,170.48,0,0,0,29.6,9.6c-.3,2.4-.6,4.9-.8,7.3a56.22,56.22,0,0,1-19.3-8.7c-3.2-2.7-6.4-5.4-9.5-8.2m-74.1,9c4.4-4.4,10.9-6,17-6.3,7.9-.3,15.7,1.4,23.2,3.8,5.7,1.8,11,4.6,16.7,6.6a414.53,414.53,0,0,0,45,13.3c-1.3,12.9-2.2,25.7-2.9,38.7-11.8.1-23.6-.4-35.3-.9-17.1-1.1-34.2-4.4-49.8-11.5-3.3-1.6-6.8-3-9.5-5.7-6-5.7-10.2-13.6-10.1-22,0-5.7,1.4-11.8,5.7-16m253.7,49.7c1.7.3,3.4.6,5,.9-1.7,8-4.2,15.9-6.6,23.7.3-8.3,1-16.4,1.6-24.6Z" transform="translate(-300 -154.51)"/><path class="cls-1" d="M680.42,256.4a217.85,217.85,0,0,1,70.5,7.9c18.4,5.4,36.3,13.4,51.8,24.8,4.3,2.9,7.3,7.2,10.1,11.5,7.8,12.3,12.2,26.5,15.2,40.7,3.7,17.5,5.3,35.4,6.1,53.2,1.3,30.4,0,60.9-2.5,91.3q-3.45,41.55-9.8,82.8c-7.2,46.4-16.9,92.7-32.8,137-7.3,20.2-15.9,40-26.9,58.5-6.3,10.5-13.4,20.6-22,29.4-3.5,3.4-7.1,6.8-11.5,9a198.44,198.44,0,0,1-55.5,19.1c-20.1,3.6-41.4,3.3-60.7-3.8A91.37,91.37,0,0,1,573,789.5c-8.4-10.2-14.6-22-19.2-34.3-6-15.9-9.6-32.7-12-49.5-4-28.7-4.5-57.8-3.3-86.7-1.2.1-2.7-.4-3.6.7-13.8,13.3-29.7,24.4-46.3,34.1A340.83,340.83,0,0,1,438,678.1a215.63,215.63,0,0,1-37.7,2c-19.9-.8-40.1-4.7-57.7-14.3a81.19,81.19,0,0,1-33.3-33.4,85.19,85.19,0,0,1-5.1-65.3c2.9-9.1,8.4-17.1,14.2-24.6,9.6-12,20.6-22.8,31.8-33.2,17.8-16.3,36.6-31.4,55.7-46,28.7-21.9,58.2-42.7,88.2-62.8,7.3-4.9,14.8-9.7,22-14.7a247.13,247.13,0,0,1,54-27.4,287.3,287.3,0,0,1,79.4-16.5c3.2-21.3,8.3-42.4,16.9-62.2,3.9-8.2,8.1-16.4,14-23.3m1.3,2.9c-5.9,7.6-10.2,16.3-13.9,25.1-7.5,18.4-12.1,37.8-15.1,57.4,24.2-1.1,48.6,1,71.9,7.7,17.9,5.2,35.2,13.3,49.6,25.4a409.45,409.45,0,0,1,9-45.4c2.3-8.4,4.8-16.9,9.2-24.5,1.9-3.1,4.4-6.6,8.3-7.1,2.2-.4,3.8,1.4,5.4,2.7,5.7,5.5,9.2,12.8,12,20,5.3,14.1,7.9,29.1,9.7,44a446.48,446.48,0,0,1,2.5,50.4c-.1,31.8-2.5,63.6-6,95.2-3.1,28.3-7.1,56.6-11.7,84.7-1.4,9.8-4.3,19.3-6.7,28.9-6.5,24.2-13.7,48.2-22.1,71.8-6.4,17.8-13.4,35.5-22.1,52.3-4.8,9.2-10.1,18.2-16.9,26.1-4.5,5.1-9.8,10-16.4,12.1-3.8,1-8,1.5-11.8,0-5.4-2.1-9.5-6.5-12.5-11.2-4.3-6.8-7-14.4-9.1-22.1-3.2-11.8-4.8-24-5.9-36.2-1.6-17.6-1.7-35.3-1.4-53,.9-39.5,4.7-79,9.5-118.2a282.91,282.91,0,0,1-76.3,19.1c-24.8,2.6-50.1,1.9-74.6-3.2-2.5,20.7-4.3,41.6-5,62.4-.9,25-.4,50.1,2.6,75a257.24,257.24,0,0,0,10.2,48.4c3.8,11.6,8.8,23,15.7,33.1,10,14.8,24.2,27,40.9,33.7,18.2,7.4,38.5,8.3,57.9,5.4a192.63,192.63,0,0,0,57.7-18.9c6.8-3.1,11.8-8.8,16.7-14.2a171.66,171.66,0,0,0,17.5-24.9c9.9-16.7,17.7-34.5,24.5-52.7,16.5-44.7,26.4-91.5,33.8-138.5q6.6-42.45,10.1-85.4c2.5-31.9,3.9-64,2.1-96-1-17.6-2.9-35.1-7-52.2-3.5-14-8.3-28.2-17.4-39.7-2.7-3.6-6.5-6.1-10.2-8.6a166.41,166.41,0,0,0-42.9-20.1,212.7,212.7,0,0,0-71.8-8.8m114.4,45.3c-2.8,3.9-4.5,8.4-6.2,12.9a215.87,215.87,0,0,0-7.4,27.3c-2.3,10.8-4.2,21.6-5.7,32.6a79.94,79.94,0,0,1,17.7,23.5c7.6,15.4,8.7,33.5,4.1,50-3.8,13.6-7.4,27.3-12.3,40.6-2.3,6.5-6.4,12-10.1,17.7a72.39,72.39,0,0,0-3,16.6c-1.4,16.7.1,33.4,2.9,49.9a63.49,63.49,0,0,1-5.1,12.4c-3,5.6-7.1,11-13.1,13.6-3.2,1.5-6.8,1.5-10.2,1.3-10.9-.8-21.8-2.4-32.6-4.2-2,5.4-5.6,10.5-10.9,13-1-.2-2-.4-2.9-.6a235.85,235.85,0,0,1-8.9,29.7,14.34,14.34,0,0,0-1.4,5c-.9,22.9-1.2,45.9.7,68.8,1.1,12.6,2.7,25.2,6,37.4,2.1,7.8,4.9,15.6,9.5,22.4,2.7,3.9,6.2,7.6,10.9,9.2,2.8,1,5.8.5,8.6,0,4.7-1.2,8.7-4.3,12.1-7.6,5.4-5.2,9.7-11.5,13.7-17.8a245.19,245.19,0,0,0,14.4-27.9,575,575,0,0,0,20.8-55.3c7.8-23.9,14.6-48,20.6-72.4.9-4.4,1.5-8.9,2.3-13.4,6.6-41,11.9-82.3,14.8-123.8,2.1-31.8,3-63.7,0-95.4-1.6-15.7-4.1-31.5-9.4-46.5-2.6-7.1-5.8-14.2-11-19.8a10.72,10.72,0,0,0-3.8-2.9c-2.3.1-3.9,2-5.1,3.7m-136.4,39.9c-3.2,0-6.4.4-9.6.2a4.4,4.4,0,0,0-.2,1,207.83,207.83,0,0,1,37,1.1,45.73,45.73,0,0,0,5.2.5c.1.2.2.7.3.9a219.39,219.39,0,0,0-61.1,0l-.1-.3c.1-.1.3-.4.4-.5,6-.7,11.9-1.4,17.9-1.6l-.9-.9a278.19,278.19,0,0,0-98.9,25.2,213.26,213.26,0,0,0-50.4,32.6c-14.8,13.1-27.7,28.9-34.8,47.5-5.2,13.6-6.8,28.8-3.1,42.9,3.7,14.8,12.8,27.7,24.4,37.5,14.4,12.3,32.1,20.2,50.2,25.2,24.3,6.7,49.7,8.4,74.7,6.7a279.33,279.33,0,0,0,63.5-12c29.4-9.2,57.6-23.2,81.3-43.1,12.9-11,24.5-23.8,32.6-38.8,7.7-14.2,11.9-30.6,9.7-46.8-2-15.2-9.7-29.3-20.5-40-12.6-12.6-28.7-21.2-45.4-27-23.2-7.9-47.8-10.8-72.2-10.3M443.82,439c-21,15.1-41.6,30.6-61.7,46.9-15.8,13-31.4,26.3-45.6,41,10.8-8,21.4-16.3,32.2-24.4q56.4-43,112.8-86c3.3-3.4,6.4-7,9.8-10.3-16.1,10.6-31.9,21.6-47.5,32.8m-110,91a46.74,46.74,0,0,0-4.5,4.4c-7.7,8.6-15.2,17.6-20.1,28.1a79.67,79.67,0,0,0-5.9,38.3c1.4,17.6,8.8,34.9,21.2,47.6,12.3,12.9,28.9,20.9,46.1,25,21.7,5.1,44.3,4.9,66.3,2.1a282.79,282.79,0,0,0,26-11.2c24.6-12,48.4-26.4,68.4-45.1q-10.65-.15-21.3-.6a163.21,163.21,0,0,1-41.1-5.9,100.47,100.47,0,0,1-24.2-10c-8.8-6.6-14.5-17.5-13.8-28.6.7-7.5,1.8-15,2.6-22.5a26,26,0,0,1,1.9-18.4c3.3-7.3,10.6-12.2,18.4-13.4,6.5-1.1,13.2.3,19.3,2.5a71,71,0,0,1-15.2-30.7,72.15,72.15,0,0,1,1.8-36.6c4-13.3,11.3-25.4,19.9-36.1q-72.9,55.35-145.8,111.1m436-31.9c-19.6,20.2-43.9,35.2-69.7,46.2-2.6,20.8-4.9,41.7-6.6,62.6,3.4.6,6.8,1.1,10.2,1.8,3.8-2.1,6.4-5.8,8.2-9.7a21.67,21.67,0,0,1-3.8-1.6,8.23,8.23,0,0,1-3.2-7.6c.5-4.2,2.7-8,5.2-11.4C715,571.7,721,565.8,727,560c5.7-5.5,11.8-10.6,17.2-16.3a330,330,0,0,0,29-35.5,109.9,109.9,0,0,0,9.1-14.5c3-6.9,5-14.2,7.3-21.4a142.55,142.55,0,0,1-19.8,25.8m-12.1,45.5c-5.7,12.1-11.2,24.4-14.4,37.4-1,5-2.2,10.5-.3,15.4.7,2.2,3.3,2.6,5.2,3.2,5.2,1.3,10.6-1,14.2-4.7,5.3-5.4,8.4-12.4,10.7-19.5-.1-2.3-.8-4.6-1-6.9-2.4-16.9-3.4-34.1-.9-51-4.8,8.7-9.3,17.3-13.5,26.1m-318.9-13.5c-3.3,4.9-5.3,10.9-4.6,16.8.5-2,.7-4.1,1.2-6s1.7-3.1,2.9-4.5a29.84,29.84,0,0,1,19.8-10.1c8.6-.8,17.1,1.8,24.6,5.7-2.6-2.3-5-4.8-7.4-7.3a40.2,40.2,0,0,0-17.7-4c-7.2.2-14.5,3.5-18.8,9.4M739,552.8c-5.6,5.2-11.3,10.3-16.7,15.8-4.7,4.9-9.5,10-12.8,16-1.2,2.4-2.5,5.3-1.5,8.1.4.8.8,1.8,1.8,2,10.4,2.1,20.8,3.7,31.3,4.8-2.3-3.7-2.4-8.2-1.9-12.4.8-6.9,2.9-13.5,5.2-20,5.1-13.9,11.6-27.2,18.4-40.4-7.5,9-15.1,18.1-23.8,26.1M439,540.2a8,8,0,0,0-1.1,3.4c-1,5.5-1.7,11.2-2.4,16.7a24.35,24.35,0,0,1,14.8-8.7c9.5-1.8,19.3-.2,28.4,2.6,6.8,2,13,5.2,19.7,7.6a366.79,366.79,0,0,0,43.5,12.7c0-.4.1-1.1.1-1.4-4.5-1.5-9.2-2.2-13.5-4.2-8.4-3.4-15-9.8-21.4-15.9a107.17,107.17,0,0,0-23.5-17.3c-7.5-4.2-16.1-7.3-24.8-6.5a26.7,26.7,0,0,0-19.8,11m65.7,6.6c7.3,6.6,14,14.2,23,18.5,4.7,2.4,9.9,3.5,14.9,4.7a4.13,4.13,0,0,0-1.1-.7c-7.8-2.3-15.7-5.4-21.7-11l-10.2-8.7a26,26,0,0,0-4.9-2.8m9,4.3c3.1,2.8,6.3,5.5,9.5,8.2,5.7,4.3,12.5,6.9,19.3,8.7.2-2.4.6-4.9.8-7.3a162.37,162.37,0,0,1-29.6-9.6m-74.1,9c-4.2,4.1-5.6,10.3-5.7,16-.1,8.4,4.1,16.4,10.1,22,2.6,2.7,6.2,4.1,9.5,5.7,15.7,7,32.8,10.4,49.8,11.5,11.8.5,23.5.9,35.3.9.6-12.9,1.6-25.8,2.9-38.7a393.28,393.28,0,0,1-45-13.3c-5.6-2-11-4.8-16.7-6.6a65.68,65.68,0,0,0-23.2-3.8c-6.1.3-12.6,1.9-17,6.3m253.7,49.7c-.6,8.2-1.3,16.3-1.6,24.5,2.4-7.8,4.9-15.7,6.6-23.7-1.6-.2-3.3-.5-5-.8m-68-260.1c22.6-3.5,45.8-4.1,68.4-.5.8-.8-.9-1.1-1-1.9.7.1,2.2.4,2.9.5a18.26,18.26,0,0,1-1.3,1.6c.7.1,2.2.2,2.9.3-.1-.6-.8-.9-.9-1.6,18.5,3.2,36.9,9.3,52.5,20.2a73.48,73.48,0,0,1,20.7,21.6,57.9,57.9,0,0,1,8.5,28.9c.4,16.2-5.9,31.8-14.9,44.9-5.2,7.8-11.6,14.7-18.2,21.3-.3-.2-.5-.4-.8-.6a116.39,116.39,0,0,0,17.4-19.7c9.2-12.9,15.7-28.3,15.7-44.4A58.14,58.14,0,0,0,766,386c-9.2-12.6-22.7-21.6-36.9-27.7a144.7,144.7,0,0,0-23.9-7.7c0,.4-.2.9.4,1,17.5,4.2,34.8,11.3,48.5,23.2A64.82,64.82,0,0,1,772,399.3a57.25,57.25,0,0,1,3.2,31.7c-2.5,14.5-9.6,27.7-18.6,39.1a155.32,155.32,0,0,1-34.4,31.3c-3.5,2.5-7.3,4.6-10.8,7.1l1.2-.4c10.8-6.9,21.6-14.1,30.8-23.1.2.3.4.5.6.8-4.9,4.1-9.7,8.4-14.9,12.1a214.57,214.57,0,0,1-48.6,26.6,13,13,0,0,1,1-1.5c-2.5.9-4.9,2.1-7.5,2.8a99.77,99.77,0,0,1-12,4.1,22.5,22.5,0,0,1-2.4.8l.3,1.4c-.6-1.7-2.1-.8-3.2-.6a5.92,5.92,0,0,0-2.9,1.3c-2-.1-3.8.7-5.7,1.2a15,15,0,0,1,2.2-.2c-.1.2-.2.7-.3,1a7.81,7.81,0,0,0-3.4.9,6.12,6.12,0,0,1-.5-1.2h2.1a11.63,11.63,0,0,0-1.8-.4,3.17,3.17,0,0,0-.6.5c-1.4.4-2.9.7-4.3,1l.2.5a8.75,8.75,0,0,1-1.6-.2c-8.8,1.7-17.7,3.5-26.6,4.2v.3c2.8-.1,5.5-.6,8.2-.8l-.8.8a242.78,242.78,0,0,1-42.6,2,214.09,214.09,0,0,1-29.9-3.6c.7-.3,1.3-.9,2.1-.5,5.1,1.1,10.3,1.8,15.5,2.4-.1-.2-.2-.7-.3-.9-3,.2-5.9-.6-8.9-1-19.2-3.3-38.4-9.6-54.2-21.3a70.72,70.72,0,0,1-20.1-22.4,56.72,56.72,0,0,1-6.9-31.8c.9-12.3,5.4-24.2,11.9-34.7,8.2-13.3,19.2-24.6,31.4-34.2A210.69,210.69,0,0,1,570,365.2c8.7-3.4,17.5-6.8,26.7-8.9a7.46,7.46,0,0,1-1.2-.7c-5.8,1.8-11.7,3.5-17.4,5.7,0-.4-.1-.8.4-.9,6.1-2.3,12.4-4.1,18.6-5.9,0,.5-.1,1.1-.1,1.6,7.1-2.1,14.4-3.7,21.7-5.1a1.85,1.85,0,0,0-.2-.7c-4.9,1-9.9,2-14.7,3.3-.4-1.2,1.1-1,1.9-1.3,8.2-1.9,16.4-3.5,24.7-4.6l.1.3c-1.1,1.3-3.8.2-5,1.5l-.2.2m29.3-1.3a249.11,249.11,0,0,0-81.3,17,212.62,212.62,0,0,0-50.7,28c-12.2,9.3-23.4,20.2-32,33.1-6.8,10.2-11.9,21.8-13.3,34.1a56.16,56.16,0,0,0,5.2,31.3c4.4,9.2,11.4,17,19.4,23.2,13.6,10.5,29.9,16.8,46.5,20.5,24,5.3,48.9,5.4,73.2,2a251.72,251.72,0,0,0,62.6-17.2,209.35,209.35,0,0,0,46.5-26.9c11.7-9.1,22.3-19.7,30.5-32,8.4-12.6,14.1-27.5,13.6-42.8a56.53,56.53,0,0,0-12-32.8c-9.9-12.7-24-21.4-38.9-27.2-22.1-8.4-45.9-11-69.3-10.3m-35.9,1.7c.4.2.8.5,1.2.7,1.5-.5,3.3-.2,4.7-1.2l-.1-.3c-2,.1-3.9.7-5.8.8m78.6-.1a38.5,38.5,0,0,1,6.6,1.3c.4-.2.8-.5,1.3-.7-2.2-.4-4.4-.8-6.6-1.3a5.39,5.39,0,0,0-1.3.7M711,508.4a36.17,36.17,0,0,1-3.2,2.2l1.2-.4a8.16,8.16,0,0,1,2.6-1.4,6.13,6.13,0,0,1-.6-.4m-3.6,2.1a22.58,22.58,0,0,1-3.7,2.2c-4.5,2.4-9,4.7-13.7,6.7-.5.3-1.1.4-1.5.9,6.8-2.5,13-6.3,19.5-9.4a2.09,2.09,0,0,1-.6-.4m-25.5,12.7a23.81,23.81,0,0,0,5.9-2.5,23.81,23.81,0,0,0-5.9,2.5m-115.6,17a14.8,14.8,0,0,0,1.3.8,229.7,229.7,0,0,0,38.9.2,3,3,0,0,0-1.6-.3,226.09,226.09,0,0,1-38.6-.7m41.3.4v.2c1.8.3,3.9.4,5.5-.6-1.8.1-3.7.2-5.5.4m26.2-183.7c8.4-6.2,19.1-8.5,29.3-8,8.8.5,17.8,3.3,24.7,8.9a24,24,0,0,1,8.3,12.6c6.8,1.7,13.7,4.8,18.1,10.5a18.3,18.3,0,0,1,3.3,15.8c-1.8,7.1-6.6,12.9-12.1,17.5-7.7,6.5-17,10.9-26.6,13.8-11,3.2-22.6,4.6-34,3-7.7-1.1-15.5-3.6-21.3-9a18.69,18.69,0,0,1-6.1-16c.9-7.4,5.7-13.8,11.1-18.7-3-4-5-8.8-4.7-13.9.5-6.6,4.7-12.6,10-16.5M652,351a40.8,40.8,0,0,0-16.1,6.3,24.59,24.59,0,0,0-9.3,11.1,17.43,17.43,0,0,0,.1,12.9,23.49,23.49,0,0,0,8,9.9,34.93,34.93,0,0,1,12.9,19.8c.3,1.6,2,2.2,3.3,2.7a33.35,33.35,0,0,0,16.6.9c2.3-.5,4.9-1,6.4-2.9,2.4-7.7,5.3-16.2,12.4-20.8a22.91,22.91,0,0,0,8.3-11.5,17.45,17.45,0,0,0-1.3-12.7c-2.6-5.2-7.3-9.1-12.4-11.7a47.27,47.27,0,0,0-28.9-4m44.6,22.6c.4,7.7-4.2,14.7-10.3,19a18.15,18.15,0,0,0-5.9,6.7c5.2,2,11,4.9,13.3,10.4,1.5,3.7-.3,7.8-2.8,10.5a61.93,61.93,0,0,0,13-8.5c4.8-4.1,9.1-9.3,10.8-15.5a15.39,15.39,0,0,0-2.8-13.6c-3.8-4.8-9.6-7.4-15.3-9m-76.2,33a15.76,15.76,0,0,0,6.1,14.1c5.7,4.8,13.1,6.5,20.2,7.8-.2-.2-1.2-.8-.4-.9a44.62,44.62,0,0,1,5.1.7,64.77,64.77,0,0,0,29-2.9c4.3-1.7,8.8-3.9,11.5-7.9a8.19,8.19,0,0,0,.4-9c-2.7-4.4-7.6-6.8-12.2-8.6a42.12,42.12,0,0,0-3.4,7.5c2.7,1.6,5.5,4.5,4.5,7.9-1.3,3.8-5.3,5.6-8.8,6.9a37.92,37.92,0,0,1-24-.5c-3.2-1.3-6.7-3.3-7.5-6.9-.6-3,1.8-5.4,4-7a38.9,38.9,0,0,0-4.4-8.3c-4.8,1.7-9.7,3.9-12.9,8a8.37,8.37,0,0,0-.9,9.1c2.4,4.4,7.1,6.8,11.5,8.6,2.2.7,4.4,1.7,6.7,1.8a6,6,0,0,1,.6,1.1c-6.5-1.5-13.2-3.8-17.9-8.8a9.44,9.44,0,0,1-1.7-10.8c2.9-5.2,8.6-7.8,14-9.7-2.6-3.8-6.4-6.3-9.7-9.3-4.5,4.6-9,10.3-9.8,17.1m56.1,1.5a24.74,24.74,0,0,1-1.5,4.6c-1.5,1.8-4,2.5-6.2,3.1a37.28,37.28,0,0,1-15.6,0c-2.3-.6-4.8-1.3-6.4-3.2-.8-1.3-.9-2.8-1.4-4.2-2.1,1.5-4.3,3.8-3.5,6.6,1.3,3.7,5.2,5.4,8.7,6.6a36.85,36.85,0,0,0,23.2-.7c2.9-1.2,6.3-3.1,6.9-6.5.4-2.8-2-4.9-4.2-6.3m-79.3-53.8c2.1,0,4.3-1.9,6.3-.7a42.3,42.3,0,0,0-5.1,1.3,13.39,13.39,0,0,1-1.2-.6m56.4-.1a48.59,48.59,0,0,1,20.4,2c3.6,1.3,7.3,3.1,9.4,6.5a6.64,6.64,0,0,1-.8,7.9c-3.1,3.6-7.7,5.3-12.2,6.4a48.88,48.88,0,0,1-26.8-1.2c-3.8-1.5-8-3.6-9.6-7.6-1.2-3.1.6-6.4,3.1-8.3,4.8-3.7,10.7-5.1,16.5-5.7m.7.6c-5.5.6-11.2,1.8-15.9,5.1-2.2,1.6-4.3,4-3.9,6.9.6,3.5,3.8,5.7,6.8,7.2,7.2,3.4,15.4,4,23.2,3.3,5.6-.7,11.5-2,16-5.6,2.2-1.7,3.9-4.7,2.7-7.6-1.6-3.6-5.3-5.5-8.8-6.9a45.53,45.53,0,0,0-20.1-2.4m-83.5,8.4c1.9-.8,3.8-1.4,5.6-2.3l1.2.6a219.55,219.55,0,0,0-45.9,22.5c-14.2,9.2-27.3,20.1-37.9,33.3-8.3,10.3-15.2,22.1-18.4,35.1a59,59,0,0,0,1.9,36.2c5.4,13.9,16.2,25.1,28.7,32.9a120.43,120.43,0,0,0,32.5,14.1,61.24,61.24,0,0,0,10.3,2.3,10.54,10.54,0,0,0-1.1.7c-17.6-3.9-35-10.4-49.3-21.6A67.59,67.59,0,0,1,479,493.9a57.61,57.61,0,0,1-5.9-31.6c1.2-13.1,6.5-25.5,13.6-36.5,9.1-13.7,21-25.3,34.2-35.1a214.79,214.79,0,0,1,49.9-27.5m-7.4,22.9a29.71,29.71,0,0,1,14.5,1.4,13.31,13.31,0,0,1,7.1,6.1c1,1.9.8,4.2,1.3,6.2.9,4.4-1.7,8.7-4.8,11.6-6.1,5.6-14.5,8.4-22.7,8.6-5.5,0-11.5-1.1-15.4-5.3-1.8-1.9-2.1-4.5-3.1-6.8-1.5-3.6-.3-7.6,1.9-10.6,4.9-6.6,13.1-10,21.2-11.2m-.6,1.6a37.49,37.49,0,0,0-11.3,3.7c-4,2.2-7.9,5.3-9.7,9.7a8.26,8.26,0,0,0,1.8,9.3c3.6,3.5,8.8,4.5,13.7,4.6a33.86,33.86,0,0,0,21.8-7.6c2.9-2.6,5.6-6.1,5.4-10.2-.2-3.3-2.6-6-5.4-7.5-5.1-2.6-10.9-2.8-16.3-2m18.3,19.8c-5.9,5.7-14.2,8.6-22.3,9-5.9.2-12.5-1-16.8-5.4a11.2,11.2,0,0,0,6.4,6.4,27.43,27.43,0,0,0,15,1.5c6.5-1,13-3.6,17.8-8.2,2.7-2.6,4.9-6.2,4.5-10.1-1.3,2.4-2.5,4.9-4.6,6.8M552,406.3c2.6-4.4,5.3-8.8,7.9-13.2,1,0,2,0,3,.1-2.7,4.3-5.2,8.8-7.8,13.2-1.1-.1-2.1-.1-3.1-.1m13.7-12.3c-2.5,3.8-4.8,7.8-7.1,11.8a5.85,5.85,0,0,1,1.3-.2c2.5-3.8,4.7-7.8,7-11.7a2.46,2.46,0,0,0-1.2.1M563,406.3c2.6-4.4,5.3-8.8,7.9-13.2h2.9L566,406.3h-3m17.6,18.7c6.9-1.3,14.4-1.2,20.8,2.1,3.9,1.9,7.2,5.6,7.6,10,.2,1.5-.4,3.1.5,4.5,2,3.6,1.5,8.1-.5,11.6-2.9,5.1-7.8,8.7-13,11.1-7.6,3.4-16.4,4.7-24.5,2.8-4.8-1.2-9.7-3.9-11.7-8.7-.8-1.7-.6-3.5-.9-5.3-.8-1.6-1.9-3.1-2.1-4.8-1-4.6,1.2-9.3,4.2-12.6,4.9-5.9,12.2-9.2,19.6-10.7m2.7,1c-7.6,1.1-15.2,4.2-20.6,9.7-2.9,3-5.3,7.1-4.7,11.4.4,3.7,3.2,6.8,6.5,8.5,5.2,2.8,11.4,3.3,17.2,2.6,7.7-1,15.3-4,20.8-9.5,3.1-3,5.6-7.2,5-11.7-.4-3.8-3.2-6.8-6.5-8.6-5.4-2.8-11.8-3.2-17.7-2.4m25.4,15.6a22.38,22.38,0,0,1-7.3,10.1,39.35,39.35,0,0,1-23.1,8.2c-6.7.2-13.7-1.4-18.7-6.1a12.46,12.46,0,0,0,1.6,5.6c2.3,3.7,6.5,5.8,10.6,6.8a38.05,38.05,0,0,0,23.3-2.4c5.3-2.3,10.4-5.9,13.3-11,1.8-3.3,2.4-7.7.3-11.2m23.1,6.5a40.64,40.64,0,0,1,26.2-2.3c4.7,1.3,9.5,3.6,12.5,7.7a11.17,11.17,0,0,1,1.9,9.8c-.4,1.4.6,2.7.7,4.1.8,5.2-2.5,10-6.4,13-7.1,5.4-16.3,7.3-25,6.8-6.4-.5-13.1-2.4-17.7-7.2a11.75,11.75,0,0,1-3.1-11,12.09,12.09,0,0,1-.9-9.5c1.8-5.3,6.7-9.1,11.8-11.4m10.7-1.6c-5.8.9-11.6,2.9-16.2,6.7-3,2.5-5.5,6-5.5,10.1a11.72,11.72,0,0,0,5.3,9.3c4.6,3.4,10.4,4.8,16.1,5,8,.2,16.4-1.7,22.9-6.6,3.5-2.7,6.5-6.7,6.1-11.4-.3-4.3-3.6-7.8-7.2-9.8-6.4-3.6-14.2-4.3-21.5-3.3m22.2,26.7c-7.2,4.8-16.1,6.5-24.6,5.8-7-.6-14.4-3.2-18.8-9a12,12,0,0,0,4.8,11.1c6.5,5,15.1,6.1,23,5.3,7.4-.9,14.9-3.6,20-9.2a11.67,11.67,0,0,0,2.7-11.8,22.11,22.11,0,0,1-7.1,7.8m-98.8,2.1c10.4-1.6,21.5-.6,31,4,6,2.9,11.5,7.8,13.5,14.4,1.9,5.8.3,12.3-3.2,17.2-4.7,6.7-11.9,11.3-19.4,14.1a58.66,58.66,0,0,1-34.9,2c-6.7-1.8-13.4-5.1-17.8-10.6a18.82,18.82,0,0,1-4-15.8c1.4-6.7,6.1-12.2,11.5-16.1a51.28,51.28,0,0,1,23.3-9.2m3.2,1c-9.5,1-18.9,4.1-26.5,10-4.8,3.7-8.9,8.7-10.1,14.7a17.64,17.64,0,0,0,3.9,14.6c4.7,5.5,11.5,8.7,18.5,10.3a57.45,57.45,0,0,0,33.3-2.7c7.2-2.9,14.2-7.4,18.4-14.1a18.24,18.24,0,0,0,2.3-15.4c-1.9-5.8-6.8-10.1-12.1-12.9-8.5-4.2-18.3-5.4-27.7-4.5m104.6,50c2.3-.4,4.4-1.9,6.7-2.1,0,.1.1.3.1.4-1.9.8-3.8,1.3-5.6,2.2a6.12,6.12,0,0,1-1.2-.5m-.9.6c1-1.1,1,1.4-.1.8,0-.3.1-.7.1-.8m-2.3.7c.5-.2,1.3-.5,1.6.1-2.7,1.4-5.8,1.9-8.6,3.1,0-.2-.1-.6-.1-.7,2.3-.9,4.7-1.6,7.1-2.5m-8.5,3.8c-.6-.4-.5-.8.2-1.2.1.2.2.7.3,1l-.5.2m-1.8-.3c.9-1.1,1.2,1.6,0,.8v-.8m-3.9.7c1,.2,2.2-.8,3.1-.2-.4,1.4-2.7.3-3.2,1.7,0-.4.1-1,.1-1.5m-1.3,1.5c-.6-.2-.7-.6-.2-1,.7-.2,1.1.1,1.1.8a3.71,3.71,0,0,1-.9.2m-1.9.8c-1.5-.6,1.2-1.7.5-.2l-.5.2m-8.6,2c-.4-.4-.3-.8.4-1.2.8-.1,1.1.2.7.9a4.51,4.51,0,0,1-1.1.3m-2.6,0c.2-.8,2-.7,1.9.2a1.62,1.62,0,0,1-1.9-.2m-2.2,1.1c-.4-.4-.2-.8.4-1.1.3.1.9.4,1.2.5-.5.1-1.2.5-1.6.6m-2.1.3c-.6-.2-.6-.5-.2-.8.3,0,.9-.1,1.2-.1.1.2.2.5.3.7a5.85,5.85,0,0,0-1.3.2m-2.6.6q-.9-.3-.3-.9c.6-.2,1.8-.1,1.9.7a8.75,8.75,0,0,0-1.6.2m-2.6.5c-.6-.2-.8-.5-.4-.9.6-.2,1.8-.1,1.9.7a8.87,8.87,0,0,0-1.5.2m-3.2.5c-.5-.2-.6-.5-.3-.8.7-.2,2.2-.4,2.4.6a14.92,14.92,0,0,1-2.1.2m-3.9.4c.1-.2.4-.5.5-.7.6-.1,2.1-.3,2.2.5a6.09,6.09,0,0,1-2.7.2m-3.4.3c-.2-1.1,1.8-.3,2.4-.7l1.1.8c-1.2-.1-2.5.5-3.5-.1Z" transform="translate(-300 -154.51)"/><path class="cls-1" d="M573.22,430.1c3.5,1.6,6.6,4,9.8,6,6-1.4,11.9-3.2,18-4.3a19.82,19.82,0,0,1-2.2,3.4c-4.3,1.2-8.6,2.1-12.9,3.4,2.8,2.4,5.5,5,8.1,7.5-.4,1.3-.8,2.7-1.3,4a73,73,0,0,0-10.4-10.4c-5.8,1.7-11.7,3.8-16.5,7.7-.2.1-.7.4-.9.5.5-1.9.5-4.4,2.4-5.4,3.7-2.4,7.9-3.8,12-5.2a50.34,50.34,0,0,0-7.4-4.5c.5-.9.9-1.8,1.3-2.7" transform="translate(-300 -154.51)"/><path class="cls-1" d="M651.12,534.3c-1.3-1,2-1,.6,0Z" transform="translate(-300 -154.51)"/><path class="cls-1" d="M607.62,540.6a50.85,50.85,0,0,1,5.5-.4c-1.6,1-3.7.9-5.5.6v-.2Z" transform="translate(-300 -154.51)"/><line class="cls-2" x1="351.22" y1="299.39" x2="350.42" y2="299.59"/><path class="cls-3" d="M651.62,351c9.7-1.6,20-.5,28.8,4,5.1,2.6,9.8,6.5,12.4,11.7a17.51,17.51,0,0,1,1.3,12.7,22.75,22.75,0,0,1-8.3,11.5c-7,4.7-10,13.1-12.4,20.8-1.6,1.9-4.1,2.4-6.4,2.9a33.35,33.35,0,0,1-16.6-.9c-1.3-.6-3-1.2-3.3-2.7a35.43,35.43,0,0,0-12.9-19.8,24.11,24.11,0,0,1-8-9.9,17.43,17.43,0,0,1-.1-12.9,24.59,24.59,0,0,1,9.3-11.1,39.77,39.77,0,0,1,16.2-6.3" transform="translate(-300 -154.51)"/></g><g id="Layer_2" data-name="Layer 2"><rect class="cls-2" x="749" y="94.99" width="571" height="581"/></g><g id="Layer_1-2" data-name="Layer 1"><path class="cls-1" d="M1186.7,258a227.63,227.63,0,0,1,42.1-1.9c5.9,7,10.1,15.2,13.9,23.6,8.6,19.7,13.6,40.7,16.8,61.9a287.31,287.31,0,0,1,76.2,15.3c18.9,6.7,37.3,15.3,54,26.4,14.3,9.7,28.8,19.1,43,28.9,32.3,22.2,64.2,45.2,94.7,69.9,18.3,15,36.3,30.5,52.5,47.8,7.3,7.9,14.3,16.1,19.7,25.4,4.3,7.2,6.8,15.4,8.3,23.7,3.6,21-.8,43.5-12.9,61.1-9.2,13.6-22.9,23.8-38,30.1-20,8.3-42,10.5-63.4,9.7a186.39,186.39,0,0,1-22.4-2,336.59,336.59,0,0,1-31.9-14.2c-23.5-12-46.1-26.2-65.2-44.5-.9-.8-2.2-.3-3.3-.5a562.44,562.44,0,0,1-.6,60.9,322.11,322.11,0,0,1-6.9,48.8c-3.3,14.4-7.8,28.6-14.6,41.8-8,15.6-19.8,29.4-34.7,38.8-16.2,10.4-35.7,14.9-54.9,14.5a160.87,160.87,0,0,1-43.5-7.1,194.06,194.06,0,0,1-37.4-15.5c-5.6-3.6-10.1-8.5-14.4-13.5-10.4-12.3-18.7-26.2-25.9-40.5-10.1-20-18-41.1-24.7-62.5-14.5-46.1-23.2-93.8-29.6-141.6-5-38.8-8.5-77.8-9.1-116.9-.2-24.6.6-49.2,4.5-73.5,2.3-14,5.6-27.9,11.3-40.8,3.3-7.2,7.4-14.2,12.9-20a85,85,0,0,1,11-7.9c21.9-13.8,47-22.1,72.5-25.7m-59.3,21.4a127.75,127.75,0,0,0-21.8,13.9,57.25,57.25,0,0,0-10.4,14.8c-6.3,12.4-9.9,26-12.4,39.6-4.7,25.8-5.6,52-5.4,78.2.5,38.4,3.9,76.7,8.8,114.8,6.1,46.3,14.4,92.4,27.8,137.2a433,433,0,0,0,24.1,63.4c7.3,15.1,15.8,29.8,26.4,42.8,4.4,5.2,9,10.3,14.7,14.2a193.44,193.44,0,0,0,20.6,9.7c21.4,8.4,44.4,13.8,67.5,12.5a90.12,90.12,0,0,0,73.2-42.4c7-10.9,11.9-22.9,15.7-35.2a261.66,261.66,0,0,0,8.9-43.8A469.65,469.65,0,0,0,1368,632a698.16,698.16,0,0,0-5.3-70.8c-28.3,5.8-57.5,5.9-86,1.7a285.17,285.17,0,0,1-64.8-17.6c3,24.5,5.6,49,7.4,73.6,1.9,26.9,2.9,53.8,1.8,80.8-.9,19.1-2.6,38.3-8.1,56.7-2.7,8.5-6.1,17.2-12.2,23.8-3.9,4.2-9.4,7.5-15.3,6.7-5.4-.3-10.3-2.9-14.4-6.2-5.8-4.7-10.3-10.7-14.5-16.9a214.63,214.63,0,0,1-14.2-25.7,533.27,533.27,0,0,1-21.5-54.6c-8-23.6-14.9-47.6-21.1-71.8-.9-3.9-2.1-7.7-2.7-11.6-8.7-53.3-15.8-106.9-18-160.9-.9-24.9-.8-49.8,2-74.6,1.7-14.3,4.2-28.6,9-42.2,2.6-7.1,5.9-14.2,10.9-20a15.63,15.63,0,0,1,5.7-4.5c2.7-.4,5.2,1.2,7,3.1,3,3.4,4.9,7.6,6.7,11.7a194.11,194.11,0,0,1,7.7,26c2.7,11.9,4.9,24,6.7,36.2,14.3-12.1,31.7-20.2,49.6-25.4,23.3-6.7,47.7-8.8,71.9-7.7-3-19.4-7.5-38.7-15-57-3.7-9-8.1-17.8-14.1-25.5-34.1-1.8-69.1,4.4-99.8,20.1m-23.8,24.5c-5.3,6-8.5,13.5-11.1,21-4.5,13.4-6.9,27.5-8.5,41.6a465.25,465.25,0,0,0-2.3,51.4c.3,35,3.3,69.9,7.4,104.7q4.8,39.6,11.4,78.9c4.5,18.8,9.7,37.5,15.4,56,6.6,21.6,13.9,43,22.5,63.9,5.8,13.8,12.2,27.5,20.4,40.1,4.5,6.8,9.5,13.5,16.2,18.3a20.35,20.35,0,0,0,14.1,4c5-.9,8.9-4.5,11.8-8.4,4.6-6.3,7.5-13.7,9.7-21.2a187.53,187.53,0,0,0,6.1-34.1c2.4-24.8,2.2-49.7,1.2-74.5,0-2-1-3.8-1.6-5.7a224.5,224.5,0,0,1-8.6-29c-1.3.1-2.7.8-3.9,0-4.9-2.6-8.1-7.5-10-12.5-8.8,1.6-17.6,2.9-26.5,3.8-4.1.4-8.3.9-12.4.3-5.4-.9-9.9-4.5-13.1-8.7a60.31,60.31,0,0,1-8.9-18.4,216,216,0,0,0,3.4-33.1,125.06,125.06,0,0,0-2.5-29.9c-.4-1.5-.6-3.2-1.6-4.5a91.69,91.69,0,0,1-8-13.1c-1.8-4.1-3.2-8.3-4.6-12.5-3.2-9.8-5.9-19.8-8.7-29.7a72.39,72.39,0,0,1-1.5-37.8c3.3-14.6,11.8-27.7,22.7-37.7-2.7-18.5-6-36.9-11.4-54.8-1.9-6-4-12-7.4-17.3-1.4-1.9-3-4.1-5.5-4.4-1.6.5-2.9,2-4.2,3.3m99.2,44c-18.4,3.5-36.6,9.5-52.7,19.4-12.7,7.8-24.2,18.4-31.4,31.6a65.84,65.84,0,0,0-7.4,40.6c2.2,16.5,10,31.7,20.1,44.7,10.8,14,24.3,25.7,38.9,35.6a241.54,241.54,0,0,0,57,28,285.58,285.58,0,0,0,64.5,13.9c25.3,2.3,51,1.3,75.8-4.7,18-4.4,35.5-11.4,50.5-22.5,11.8-8.7,21.9-20.4,27.2-34.2a67.63,67.63,0,0,0,2.9-38.3c-3.4-15.8-11.6-30.2-21.8-42.5a175.29,175.29,0,0,0-38.6-33.8,243.13,243.13,0,0,0-58.5-27.7,277,277,0,0,0-69.8-13.3l.1.9c8.5.4,16.9,1.5,25.2,2.7l.9.9c-2.3-.2-4.6-.6-6.8-.9a224.38,224.38,0,0,0-53.7-1.1,2.92,2.92,0,0,0,.2-.9,47.08,47.08,0,0,0,5.3-.3,214.42,214.42,0,0,1,28.9-.2l-.1-.9a220.07,220.07,0,0,0-56.7,3m215.1,57.9c3,3.1,6,6.3,8.9,9.5,2.9,2.6,6.1,4.7,9.2,7.1q54.75,41.7,109.5,83.5c9.1,6.8,18,13.9,27.2,20.6-17.9-18.3-37.6-34.7-57.6-50.6-31.4-24.6-64-47.8-97.2-70.1m11.7,12.9c10.8,13.3,19.2,28.9,22.1,45.9a68.81,68.81,0,0,1-2.1,32.2,72.33,72.33,0,0,1-13.7,24.9c6.6-2.3,13.9-3.7,20.8-2.2a24.13,24.13,0,0,1,16.9,13,25.23,25.23,0,0,1,1.9,18.5c.5,4.9,1.3,9.8,1.8,14.7.3,3.5,1.1,6.9.8,10.5a32.18,32.18,0,0,1-4.8,16c-3.2,5-7.3,9.6-12.7,12.1-16.6,8.3-35.1,12.2-53.5,13.4-9.8.5-19.6.7-29.3,1,17.7,16.7,38.5,29.8,60,40.9a338.4,338.4,0,0,0,33.6,15.2c3.7.8,7.6.9,11.4,1.4,23,1.9,46.8.8,68.7-7.2,15.6-5.7,29.9-15.4,39.6-29,12.2-16.6,16.9-38.2,14-58.5-1.3-8.7-3.7-17.3-8.2-24.9-5.1-8.7-11.7-16.5-18.5-24-2.6-3-6-5-9-7.4q-69.9-53.4-139.8-106.7v.2M1119.7,472c2,6.1,3.8,12.3,6.1,18.4,2,5.5,5.4,10.3,8.6,15.1a328.93,328.93,0,0,0,29.2,36.3c7.2,7.8,15.5,14.5,23,22.1,5.7,5.7,11.4,11.6,15.4,18.7,2.1,3.8,3.6,8.8.9,12.6-1.2,2-3.6,2.7-5.6,3.5,1.6,3.3,3.6,6.6,6.6,8.7.7.4,1.4,1.1,2.3.8,3.2-.5,6.3-1.1,9.5-1.6-1.7-20.9-4-41.8-6.6-62.7a234.81,234.81,0,0,1-48.5-27.5c-16.2-12.1-30.7-26.8-40.9-44.4m18.3,45.5c2.7,19,1.3,38.4-1.9,57.3a5.37,5.37,0,0,0,.5,2.1,56.37,56.37,0,0,0,7.4,14.7,21.12,21.12,0,0,0,8.6,7.1,13.59,13.59,0,0,0,12.4-1c2-2.2,2-5.5,2-8.3-.4-7.6-2.8-14.9-5.3-22-6.3-17.3-14.7-33.8-23.7-49.9m296.8,6.4a7.55,7.55,0,0,0-2.6,2.1,76.67,76.67,0,0,1-5.8,5.6c8.2-4.2,17.5-7,26.8-5.4a30,30,0,0,1,19.7,12.5c1.3,2.4,1.3,5.3,2,7.8a25.06,25.06,0,0,0-3-14.2,22.6,22.6,0,0,0-16.1-11.5c-7.1-1.2-14.4.4-21,3.1m-288.5,2.5c5.2,10.2,10.3,20.4,14.7,31,3.6,8.7,6.9,17.6,8.5,26.9.8,5,1.1,10.5-1.6,14.9,10.6-1.2,21.1-2.7,31.6-4.8,2.7-1.7,2.1-5.6,1-8.2-3.4-7.6-9.5-13.6-15.2-19.5-7.5-7.7-16-14.4-23.3-22.3-5.5-5.8-10.6-12-15.7-18m272.8,12.8c-7.7,4.8-14.4,11-21,17.3-5.7,5.4-12.1,10.3-19.5,13-3.7,1.5-7.6,2-11.3,3.3,0,.4.1,1.1.1,1.4a381.26,381.26,0,0,0,43.2-12.6c6.2-2.2,12.1-5.2,18.3-7.2,9.3-3,19.2-4.8,28.9-3.3a25,25,0,0,1,15.9,8.8c-.9-6.4-1.4-12.9-3-19.1a27.12,27.12,0,0,0-23.9-12.1c-10.1.4-19.3,5.2-27.7,10.5m-19.4,10c-4.4,3.7-8.6,7.4-12.9,11.1a55.87,55.87,0,0,1-18.7,8.6,2.89,2.89,0,0,0-1.6.9c5.1-1.3,10.2-2.4,14.9-4.7,9-4.3,15.7-11.9,23-18.5a18.1,18.1,0,0,0-4.7,2.6m-33.9,11.2c.3,2.4.6,4.9.8,7.3a57.64,57.64,0,0,0,19.1-8.5c3.3-2.8,6.5-5.6,9.7-8.4a167.76,167.76,0,0,1-29.6,9.6m57.9-1c-18,7.9-37,13.1-56,17.8,1.3,12.9,2.2,25.8,2.9,38.7q9.3,0,18.6-.3c10-.3,20-.5,29.9-1.9,14.2-2,28.4-5.7,41.2-12.4,3.6-1.7,6.3-4.6,8.7-7.7a28.8,28.8,0,0,0,6.3-19.9c-.4-5.2-2-10.5-5.9-14.2-4.7-4.5-11.4-5.9-17.7-6.1-9.7,0-19.1,2.5-28,6m-212.9,51a243,243,0,0,0,6.6,23.6c-.3-8.2-1-16.3-1.6-24.5-1.6.3-3.3.6-5,.9m0-262.3c4.7-.4,9.3-1.5,14.1-1.8a14.63,14.63,0,0,1-1.3.9c-3,.1-6,.8-9.1,1l1.1.8c30.8-4.9,62.6-2.1,92.7,5.7a237.35,237.35,0,0,1,59.7,24.4c14.3,8.4,27.8,18.5,39.2,30.6,11.2,12,20.6,26.3,24.6,42.3a58.75,58.75,0,0,1-2.8,37.9c-6,14.1-17.6,25.1-30.7,32.7-17.8,10.4-38.2,15.5-58.5,17.5a216.19,216.19,0,0,1-46.2-.6c-6.9-.7-13.7-2.1-20.6-3.1a13.76,13.76,0,0,0-5.3-.9c-.3-.9-1.4-.5-2.1-.6-.9-.6-2-.9-2.8.2.9-2-1.1-1-1.9-1-.1-1.4-1.4-.8-2.2-.6h1.8l.3,1.5c-1.1-.9-2.5-.9-3.8-1.4a1.28,1.28,0,0,1,1.4-.6v-.1a18.81,18.81,0,0,0-3.3-.5,2,2,0,0,0-2.2-.3c-.4-1.4-2.9-1.4-3.8-.6.3-1.3-.2-1.6-1.4-1a1.17,1.17,0,0,0-1.4-.8c-1.3-.8-2.7-.9-4.1-1.4a25.75,25.75,0,0,0-5.4-1.6c-.6-.4-1.2-.7-1.8-1.1-2.3-.5-4.3-1.8-6.6-2.2,1.9,1.1,4.1,1.6,6.1,2.6,1.1.3-.9,1.6-1,.3a219.59,219.59,0,0,1-51.2-26.9c-16.7-12-32-26.8-41.9-45.1-7.4-13.6-11.3-29.6-8.4-45,2.5-14.1,10.8-26.8,21.6-36,14.4-12.4,32.6-19.6,50.9-23.7,1.8-.5,3.8-.5,5.5-1.5a5.33,5.33,0,0,0-.7,2,34.42,34.42,0,0,1,5.6-.9c-.4-.3-.8-.5-1.2-.8l-3.3.6c.1-.2.3-.7.4-.9m41.1-.1c-22.1-.5-44.5,2.2-65.3,9.9-15.2,5.7-29.8,14.4-39.9,27.3a56.94,56.94,0,0,0-12.3,37.8c.7,14.6,6.7,28.5,15,40.4,11.1,15.8,26,28.7,42.2,39.1a227.43,227.43,0,0,0,54.8,25.4,248,248,0,0,0,63.9,11.4c23.4.9,47.3-1.5,69.4-9.7,15.1-5.6,29.6-14.2,39.7-26.9a57.61,57.61,0,0,0,12.2-27.9,62.43,62.43,0,0,0-2.7-27.8,93.51,93.51,0,0,0-16.2-28.9,154,154,0,0,0-32.3-29.6,217.78,217.78,0,0,0-52.3-26.4,255.48,255.48,0,0,0-76.2-14.1m-46.1,2c-18.6,4.1-37.1,11.3-51.7,23.8-10.9,9.3-19.2,22-21.6,36.3-2.7,15,1.1,30.5,8.3,43.7,4.7,8.8,10.9,16.7,17.5,24.2a2.65,2.65,0,0,0,.5-.6,23.32,23.32,0,0,1-3.4-3.6,105.09,105.09,0,0,1-16.8-26.3c-5.6-12.8-7.7-27.4-4.1-41,3.4-13.8,12.3-25.8,23.4-34.4,14.6-11.4,32.4-18.1,50.5-21.7a1.06,1.06,0,0,0,.2-.5c-.8-.6-1.8-.1-2.8.1m-47.3,128a181.87,181.87,0,0,0,26.4,22.4,151.42,151.42,0,0,0,16.3,10,14.63,14.63,0,0,0-1.3-.9c-14.7-8.5-28.7-18.7-40.3-31.2a3.54,3.54,0,0,0-1.1-.3m42.6,32.2a20.67,20.67,0,0,0,4.5,2.7,55.9,55.9,0,0,0,6.5,3.2,41.72,41.72,0,0,0-4.6-2.6c-2.1-1-4.2-2.3-6.4-3.3m11,5.8a40.32,40.32,0,0,0,8.9,4.2,90.58,90.58,0,0,0-8.9-4.2m8.8,4.2a34.76,34.76,0,0,0,7.7,3.2,46.43,46.43,0,0,0-7.7-3.2m4.3-165.5c9.3-5.6,20.6-7.2,31.2-5.6,8.1,1.2,16.1,4.4,22,10.2a21.72,21.72,0,0,1,6.8,14.1,19.73,19.73,0,0,1-4,12.8c-.2.4-1,1.1-.3,1.4,4.9,4.6,9.3,10.4,10.5,17.2a18.25,18.25,0,0,1-4.4,15.5c-4.9,5.5-12.2,8.4-19.3,9.9-12.5,2.5-25.6,1.1-37.7-2.5-10.1-3.1-19.8-7.8-27.6-14.9-5.1-4.6-9.6-10.5-11-17.4a18.36,18.36,0,0,1,4.1-15.4c4.4-5.3,11-8.2,17.6-9.8,1.5-6.7,6.4-12.1,12.1-15.5m15.2-4c-7.5,1.3-14.9,4.4-20.4,9.9-3.7,3.8-6.3,8.9-6.1,14.3s3,10.4,6.9,14c2,1.9,4.5,3.2,6.2,5.4,4,4.9,6.3,10.9,8,16.8.5,1.3,2,1.8,3.1,2.3a33.35,33.35,0,0,0,16.6.9c2.3-.5,4.9-1,6.4-2.9,2-7.9,6.3-15.4,12.9-20.3a24.75,24.75,0,0,0,8.3-10.1,17.61,17.61,0,0,0-.2-13.7c-2.4-5.5-7.2-9.7-12.5-12.5-8.8-4.6-19.3-5.8-29.2-4.1m-42.2,30.5a15,15,0,0,0-4.2,11.5c.3,5,2.9,9.6,6,13.4,4.9,5.9,11.4,10.3,18.2,13.7-2.4-2.8-4.2-6.7-2.7-10.4,2.3-5.5,8-8.4,13.3-10.4a24.52,24.52,0,0,0-2.6-3.7c-1.8-2.3-4.5-3.5-6.5-5.6a21.45,21.45,0,0,1-7.1-16.4c-5.3,1.5-10.6,3.8-14.4,7.9m70.7,17.4c5.3,1.9,11.1,4.5,14,9.7,2,3.5,1,8-1.7,10.8-4.4,4.8-10.8,7.1-17.1,8.6,0-.2.1-.7.1-.9,5.8-1.2,11.6-3.5,15.9-7.7,2.7-2.6,4-6.8,2.1-10.3-2.8-5.2-8.6-7.8-13.9-9.6a41.13,41.13,0,0,0-4.4,8.3c1.9,1.4,3.9,3.2,4.1,5.8s-1.7,4.9-3.8,6.3c-4,2.6-8.9,3.7-13.6,4-6,.3-12.3-.3-17.7-3.1-2.5-1.4-5.2-3.5-5.3-6.6s2.3-5.2,4.7-6.6a42.12,42.12,0,0,0-3.4-7.5c-4.5,1.8-9.3,4.1-12,8.3a8.2,8.2,0,0,0-.1,8.9c2.7,4.2,7.3,6.5,11.7,8.2,10.7,3.9,22.5,4.2,33.7,2.2,1.1-.2.7.7.1,1a6.07,6.07,0,0,0,1.8-.5c6.9-1,14-3.3,19.2-8a15.56,15.56,0,0,0,5.2-14c-1-6.6-5.3-12.1-10.1-16.5-3.2,2.9-7,5.4-9.5,9.2m-40.3,16.2c1.1,3.4,4.8,5.2,7.9,6.3a36.91,36.91,0,0,0,23-.1c3.1-1.2,6.6-2.9,7.7-6.2.8-2.8-1.3-5.2-3.5-6.6-.5,1.4-.6,2.9-1.4,4.2-1.6,1.8-4,2.5-6.2,3.1a38.53,38.53,0,0,1-15.5.1c-2.3-.6-4.9-1.3-6.5-3.2a24.74,24.74,0,0,1-1.5-4.6c-2.3,1.5-4.9,3.9-4,7m57.3-66c2.7-.4,5.5.9,8.3,1-.4.2-.8.5-1.2.7-2.3-.6-4.7-.9-7.1-1.3v-.4m7.9,2,1.1-.8a23.63,23.63,0,0,0,4.5.8,10.54,10.54,0,0,0-1.1.7,23.38,23.38,0,0,0-4.5-.7m5.1,1c.4-.2.8-.5,1.2-.7,3.8.9,7.5,2,11.3,2.7a9.29,9.29,0,0,0,.5,1c-4.3-1-8.6-2.3-13-3m-54.2,2a46.61,46.61,0,0,1,20.3,2.1c3.7,1.4,7.7,3.3,9.7,7,1.5,2.7.5,6.1-1.7,8.1-3.7,3.6-8.8,5.2-13.7,6.2a49.25,49.25,0,0,1-24.4-1.6c-3.7-1.4-7.7-3.4-9.6-7.1-1.4-2.9-.1-6.3,2.2-8.3,4.7-4.2,11.1-5.6,17.2-6.4m.2.8c-5.6.6-11.5,2-16.1,5.4-2.3,1.7-4.2,4.7-3.1,7.6,1.6,3.8,5.6,5.8,9.2,7.2a48.14,48.14,0,0,0,26.6,1c4.1-1.1,8.4-2.7,11.3-5.9a6,6,0,0,0,1.1-6.8c-1.8-3.2-5.3-5-8.6-6.3a46.79,46.79,0,0,0-20.4-2.2m69.1,1c0-.4-.1-.8-.1-1.2a26.74,26.74,0,0,0,5,1.7,239.21,239.21,0,0,1,55.4,24.7c14.3,8.8,27.6,19.4,38.6,32.1,10.8,12.5,19.6,27.3,22.5,43.8a58.24,58.24,0,0,1-6.2,38.6c-7,12.9-18.7,22.8-31.5,29.8a134.66,134.66,0,0,1-37.4,13.3,9.29,9.29,0,0,1,.5-1c2.8-.2,5.6-1.2,8.3-1.8,17.6-4.8,34.9-12.6,48-25.6a61.91,61.91,0,0,0,16.3-26.8,60.26,60.26,0,0,0-1.2-35.9c-5.3-16.1-15.6-30-27.5-41.8-19.5-19.1-43.7-32.9-69-42.7a167.16,167.16,0,0,0-21.7-7.2m22.5,30.3a36.25,36.25,0,0,1,24.6,5.6c4.2,2.8,8.1,7,8.5,12.3.3,2.5-1.2,4.7-1.8,7.1-1.1,3.9-4.8,6.4-8.5,7.6-7.1,2.3-15,1.4-21.9-1.3-5.8-2.3-11.6-6.1-14-12.1-1.5-3.3-.1-6.9.3-10.3,1.6-5.5,7.5-8.2,12.8-8.9m-.1,1.5c-4.3.7-9.2,2.7-11.1,7-1.7,3.9.3,8.2,3,11,5.3,5.6,12.9,8.5,20.4,9.2,5.5.4,11.5-.2,16-3.7a8.39,8.39,0,0,0,3-9c-1.3-4.4-5-7.7-8.8-10a34,34,0,0,0-22.5-4.5m-13,12.9a10.44,10.44,0,0,0,1.8,6.9c2.8,4.3,7.3,7.2,11.9,9.1,6.6,2.6,14,3.6,20.9,1.7,3.8-1.1,7.7-3.4,9-7.4-4.1,4.4-10.5,5.6-16.3,5.5-8.3-.3-16.7-3.2-22.8-9a25.15,25.15,0,0,1-4.5-6.8m-9.5,24.3a39,39,0,0,1,22.9,2.6c5.3,2.3,10.3,5.7,13.5,10.6,2.2,3.4,3.2,7.8,1.7,11.7-.5,1.6-2,2.9-1.8,4.6.1,4.3-2.9,8.1-6.5,10.1-5.5,3.2-12.1,3.8-18.3,3.1-7.8-1-15.5-4-21.3-9.5-3.4-3.3-6.2-7.9-5.7-12.8.1-1.8,1.1-3.4,1.7-5.1-.1-2.4-.1-4.9,1.1-7.1,2.5-4.6,7.7-7.1,12.7-8.2m2.1,1.1c-4.6.7-9.5,2.5-12.4,6.3a10.41,10.41,0,0,0-1.1,10.5c2,4.7,6.1,8.2,10.5,10.7a38.91,38.91,0,0,0,23.4,4.7c4.7-.6,9.6-2.4,12.7-6.1a10.3,10.3,0,0,0,1.4-10.4c-2-4.8-6.1-8.4-10.5-11a39.47,39.47,0,0,0-24-4.7m-13.6,29.1c5.5,6.9,14.2,10.6,22.8,11.7,6.5.8,13.6.2,19.2-3.6a11.8,11.8,0,0,0,5.2-9.4,20.91,20.91,0,0,1-9,4.9c-8.4,2.3-17.6.9-25.5-2.6-6.4-2.9-12.4-7.7-14.7-14.6-2.6,4.4-1,10,2,13.6m-47.6-10a40.09,40.09,0,0,1,25,4.3c4.4,2.5,8.4,6.3,9.6,11.3a11.78,11.78,0,0,1-1.2,8.4,11.6,11.6,0,0,1-2.7,10.4c-4.2,4.8-10.6,6.9-16.7,7.6-8.9.9-18.3-.9-25.6-6-4-2.9-7.5-7.3-7.3-12.5-.1-2,1.4-3.7.7-5.7a11.68,11.68,0,0,1,3.2-10.8c4-4.1,9.5-6.2,15-7m.9,1.3c-4.8.7-9.7,2.3-13.4,5.4a11.53,11.53,0,0,0-4.4,8.9c.1,4.2,2.9,7.8,6.2,10.3,5.8,4.4,13.1,6.4,20.3,6.6,6.4.2,13.1-1.1,18.4-4.8,3.3-2.3,5.9-6,5.6-10.1-.3-4.7-3.7-8.4-7.3-10.9a37.88,37.88,0,0,0-25.4-5.4m-15.4,31c5.3,5.7,13.2,8.4,20.8,9.1s16.1-.7,22.2-5.7a11.84,11.84,0,0,0,4.5-10.8,23,23,0,0,1-8.4,6.4c-8.1,3.5-17.3,3.5-25.7,1.1-6.7-1.9-13.2-5.8-16.4-12.2-1.5,4.2,0,8.9,3,12.1m84.6-2.1a59.47,59.47,0,0,1,33.3,4.3c7,3.2,13.5,7.9,17.4,14.6a19,19,0,0,1,1.7,16.4c-2.4,6.5-8.2,11.2-14.4,14-10.2,4.5-21.9,5.1-32.7,2.9-8.9-1.8-17.6-5.6-24.2-11.9-4.4-4.2-7.8-9.9-8-16.1a19.71,19.71,0,0,1,6.6-14.9c5.4-5.2,12.9-8,20.3-9.3m3.2,1.1c-7.8.9-15.7,3.4-21.8,8.5-4.1,3.5-7,8.6-7,14.1,0,6,3.3,11.5,7.6,15.6,6.6,6.2,15.2,9.9,24,11.6,9.9,1.9,20.5,1.4,29.9-2.4,5.6-2.3,10.9-5.9,13.9-11.3a16.84,16.84,0,0,0,.7-15c-2.7-6.4-8.1-11.1-13.9-14.5a56.05,56.05,0,0,0-33.4-6.6m-92.4,51.2a4.4,4.4,0,0,0,.2-1c.7.4.7.7.2,1.2l-.4-.2m1.3.3a2.35,2.35,0,0,0-.2-.8c3,.7,5.8,2.2,8.9,2.6a6.72,6.72,0,0,1,.6,1.2c-3.1-.9-6.1-2.1-9.3-3m10.3,3.6q-1.2-.45-.3-1.2,1.05.45.3,1.2m.9-.5c.9-1,1.3,1.7.1.7,0-.1-.1-.5-.1-.7m1.5.7c.9-.5,2,.3,2.9.2a8.33,8.33,0,0,0,.4,1.5c-.7-1.3-2.9-.4-3.3-1.7m3.7,1.5c0-.7.3-.9,1-.8.5.4.4.7-.2,1a2.35,2.35,0,0,0-.8-.2m2.1-.1c.6-.9,1.5,1,.5.9a9,9,0,0,0-.5-.9m5.7,2.3c-.1-.6.2-.9,1-.9,1.3.6-.3,1.7-1,.9m2.1.2c.2-1.4,2.5,0,1.1.7a4.13,4.13,0,0,0-1.1-.7m2.1.7c-.1-.7,1.1-.7,1.6-.6.4.3.4.6-.2.8a5.9,5.9,0,0,0-1.4-.2m2.7.6c-.2-.6.1-.9.9-.8.7.4.7.7.2,1.1-.2-.1-.8-.2-1.1-.3m2.3.4a1.7,1.7,0,0,1,.1-.7c.3,0,.9.1,1.2.1.6.3.7.6.4,1-.5-.1-1.3-.3-1.7-.4m2.5.5c-.4-.7,1.1-.8,1.5-.6.6.3.7.6.3,1-.5-.1-1.4-.3-1.8-.4m2.3.6c0-.8,1.2-.9,1.8-.7q.6.6-.3.9a6.8,6.8,0,0,0-1.5-.2m2.8.5c-.1-1,1.6-.8,2.2-.6.3.4.3.6-.2.8a13.55,13.55,0,0,1-2-.2m3.1.5c0-1,1.6-.8,2.3-.6.3.4.2.6-.3.8a7.14,7.14,0,0,1-2-.2m21.1,1.8a204.79,204.79,0,0,0,55.8-2.7,10.37,10.37,0,0,0-.4,1,44.62,44.62,0,0,0-5.1.7,213.49,213.49,0,0,1-45.2,2.1c-2.1-.1-4.1-.4-6.2-.3a7.63,7.63,0,0,1,1.1-.8m-18.4-1.3a10.47,10.47,0,0,0,1.1-.8c.7.1,2.2.2,2.9.3a8.74,8.74,0,0,0-1,.8,16,16,0,0,0-3-.3m3.6.5a3,3,0,0,1,3.5-.2l.5.5-4-.3m4.8.2c.9-.6,2-.2,2.9-.2v.5c-.9.6-2.1,0-3.1-.1l.2-.2m4,.4.1-.3c1.7,0,3.4.2,5.1.2l-1.1.8a28.68,28.68,0,0,1-4.1-.5v-.2Z" transform="translate(-300 -154.51)"/><path class="cls-1" d="M1312.2,354.9a3.33,3.33,0,0,1,.3-.6c1.5-.2.7,1.5-.3.6Z" transform="translate(-300 -154.51)"/><path class="cls-1" d="M1358.6,538.7c-1.1-1,2.4-1,1.3-.1-.4,0-1,.1-1.3.1Z" transform="translate(-300 -154.51)"/><path class="cls-2" d="M1240.4,350.7c-7.5,1.3-14.9,4.4-20.4,9.9-3.7,3.8-6.3,8.9-6.1,14.3s3,10.4,6.9,14c2,1.9,4.5,3.2,6.2,5.4,4,4.9,6.3,10.9,8,16.8.5,1.3,2,1.8,3.1,2.3a33.35,33.35,0,0,0,16.6.9c2.3-.5,4.9-1,6.4-2.9,2-7.9,6.3-15.4,12.9-20.3a24.75,24.75,0,0,0,8.3-10.1,17.61,17.61,0,0,0-.2-13.7c-2.4-5.5-7.2-9.7-12.5-12.5-8.8-4.6-19.3-5.8-29.2-4.1" transform="translate(-300 -154.51)"/><path class="cls-1" d="M1275.4,457.6c-1.3-3-3.4-6.1-6.8-6.8-3.1-.6-6,.9-8.5,2.5-3.1-1.2-6.4-2.5-9.7-2.1a4.28,4.28,0,0,0-3.5,4.1c-.3,4.1,1.4,8,2.9,11.7,9.2-1.7,18.9-2.3,28,.1A34.9,34.9,0,0,0,1275.4,457.6Zm-23.6,6.3a21.3,21.3,0,0,1-2.6-7.7,3.27,3.27,0,0,1,3.6-2.9,14.07,14.07,0,0,1,7.1,2.7c1.1,2.2,1.5,4.7,2.4,7A62,62,0,0,0,1251.8,463.9Zm12.6-1c-.6-2.3-1.4-4.5-2.2-6.9,1.6-.9,2.8-2.6,4.6-2.9a4.37,4.37,0,0,1,4.2,2,23,23,0,0,1,3.6,8.7Q1269.5,463.2,1264.4,462.9Z" transform="translate(-300 -154.51)"/><path class="cls-1" d="M1332.7,444.4c-1.7-2.9-2.9-6-4.3-9,2.2-.4,4.5-.7,6.8-.9l-2.6-2.6a131.65,131.65,0,0,0-17.7,4.7,19.75,19.75,0,0,0-5.4,2.8c-.1,1.1.5,2.2.7,3.3,10.5,1.1,20.5,4.4,30.4,7.9v-3.5A81.89,81.89,0,0,0,1332.7,444.4Zm-17.8-4.3a59.11,59.11,0,0,1,10.6-4c1,2.3,2,4.7,3,7A91.82,91.82,0,0,0,1314.9,440.1Z" transform="translate(-300 -154.51)"/><path class="cls-1" d="M1353.4,398.6c-1.2-1.7-2.4-3.5-3.7-5.2a8.19,8.19,0,0,0-7.4-2.7c-2.2.2-4.8,2.1-4.2,4.5,1.5,2.9,3,5.7,4.6,8.5a8.91,8.91,0,0,0,8.8,3.2c1.7-.3,3.5-1.4,3.8-3.3S1354.4,400.1,1353.4,398.6Zm-6,3.2c-2-.4-2.7-2.5-3.5-4-.5-.9-1.3-2.1-.1-2.7a3.45,3.45,0,0,1,4.1.9,16.11,16.11,0,0,1,2.5,4.2C1350.5,401.7,1348.5,402.1,1347.4,401.8Z" transform="translate(-300 -154.51)"/></g></g><g id="Controls"><line class="cls-4" x1="850.15" y1="419.69" x2="767.42" y2="447.87"/><line class="cls-3" x1="602.67" y1="445.63" x2="767.42" y2="447.87"/><text class="cls-5" transform="translate(607.44 430.03) rotate(0.78)"><tspan class="cls-6">R</tspan><tspan x="11.51" y="0">ig</tspan><tspan class="cls-7" x="28.16" y="0">h</tspan><tspan x="39.73" y="0">t</tspan><tspan class="cls-8" x="46.68" y="0"> </tspan><tspan class="cls-9" x="50.27" y="0">T</tspan><tspan class="cls-10" x="59.77" y="0">r</tspan><tspan x="66.72" y="0">igger (</tspan><tspan class="cls-11" x="122.91" y="0">R</tspan><tspan class="cls-12" x="134.4" y="0">T</tspan><tspan x="146.09" y="0">)</tspan></text><line class="cls-4" x1="462.92" y1="415.59" x2="522.17" y2="497.87"/><line class="cls-3" x1="666.48" y1="497.87" x2="522.17" y2="497.87"/><text class="cls-5" transform="translate(530.4 490.75)"><tspan class="cls-13">L</tspan><tspan x="9.62" y="0">e</tspan><tspan class="cls-14" x="20.14" y="0">f</tspan><tspan x="26.5" y="0">t</tspan><tspan class="cls-8" x="33.45" y="0"> </tspan><tspan class="cls-9" x="37.04" y="0">T</tspan><tspan class="cls-15" x="46.54" y="0">r</tspan><tspan class="cls-16" x="53.49" y="0">igger (</tspan><tspan class="cls-17" x="109.68" y="0">L</tspan><tspan class="cls-18" x="117.75" y="0">T</tspan><tspan x="129.44" y="0">)</tspan></text><line class="cls-4" x1="204.72" y1="444.69" x2="176.91" y2="571.77"/><line class="cls-3" x1="176.91" y1="571.77" x2="30.55" y2="579.15"/><text class="cls-5" transform="translate(38.49 571.68) rotate(-2.89)"><tspan class="cls-13">L</tspan><tspan x="9.62" y="0">e</tspan><tspan class="cls-14" x="20.14" y="0">f</tspan><tspan x="26.5" y="0">t But</tspan><tspan class="cls-19" x="67.81" y="0">t</tspan><tspan class="cls-16" x="74.63" y="0">on (LB)</tspan></text><line class="cls-4" x1="1108.99" y1="433.78" x2="1158.96" y2="598.53"/><line class="cls-3" x1="1158.96" y1="598.53" x2="1323.73" y2="602.74"/><text class="cls-5" transform="matrix(1, 0.03, -0.03, 1, 1162.24, 562.89)"><tspan class="cls-6">R</tspan><tspan x="11.51" y="0">ig</tspan><tspan class="cls-7" x="28.16" y="0">h</tspan><tspan x="39.73" y="0">t But</tspan><tspan class="cls-19" x="81.04" y="0">t</tspan><tspan x="87.86" y="0">on (RB)</tspan><tspan x="0" y="25.2">(Sp</tspan><tspan class="cls-15" x="28.27" y="25.2">r</tspan><tspan class="cls-16" x="35.22" y="25.2">i</tspan><tspan class="cls-7" x="40.13" y="25.2">n</tspan><tspan x="51.7" y="25.2">t)</tspan></text><line class="cls-4" x1="343.22" y1="303.49" x2="285.79" y2="151.94"/><line class="cls-3" x1="285.79" y1="151.94" x2="167" y2="151.93"/><text class="cls-5" transform="translate(175.23 144.81)">Y But<tspan class="cls-19" x="45.72" y="0">t</tspan><tspan x="52.54" y="0">on</tspan></text><line class="cls-4" x1="283.02" y1="281.59" x2="226.39" y2="193.68"/><line class="cls-3" x1="226.39" y1="193.68" x2="107.61" y2="193.68"/><text class="cls-5" transform="translate(115.82 186.58)">X But<tspan class="cls-20" x="46.35" y="0">t</tspan><tspan x="53.17" y="0">on</tspan></text><line class="cls-4" x1="959.9" y1="301.49" x2="1049.6" y2="155.36"/><line class="cls-3" x1="1049.6" y1="155.36" x2="1168.38" y2="156.98"/><text class="cls-5" transform="translate(1059.03 142.87) rotate(0.78)">B But<tspan class="cls-19" x="45.74" y="0">t</tspan><tspan class="cls-16" x="52.56" y="0">on</tspan></text><line class="cls-4" x1="1014.9" y1="285.59" x2="1117.9" y2="202.49"/><line class="cls-3" x1="1117.9" y1="202.49" x2="1236.68" y2="204.11"/><text class="cls-5" transform="translate(1127.33 190) rotate(0.78)">A But<tspan class="cls-19" x="47.21" y="0">t</tspan><tspan x="54.03" y="0">on</tspan></text><line class="cls-4" x1="360.14" y1="211" x2="433.12" y2="84.73"/><line class="cls-3" x1="551.91" y1="84.73" x2="433.12" y2="84.73"/><text class="cls-5" transform="translate(434.47 17.58)"><tspan class="cls-13">L</tspan><tspan x="9.62" y="0">e</tspan><tspan class="cls-14" x="20.14" y="0">f</tspan><tspan x="26.5" y="0">t</tspan><tspan class="cls-8" x="33.45" y="0"> </tspan><tspan class="cls-21" x="37.04" y="0">T</tspan><tspan x="47.33" y="0">humbstick</tspan><tspan x="0" y="25.2">(</tspan><tspan class="cls-22" x="5.96" y="25.2">M</tspan><tspan class="cls-23" x="22.97" y="25.2">o</tspan><tspan class="cls-24" x="34.36" y="25.2">v</tspan><tspan class="cls-25" x="44.25" y="25.2">eme</tspan><tspan class="cls-7" x="82.8" y="25.2">n</tspan><tspan x="94.37" y="25.2">t)</tspan><tspan x="0" y="50.4">(UI N</tspan><tspan class="cls-26" x="42.84" y="50.4">a</tspan><tspan x="52.79" y="50.4">vig</tspan><tspan class="cls-7" x="79.55" y="50.4">a</tspan><tspan class="cls-16" x="89.58" y="50.4">tion)</tspan></text><line class="cls-4" x1="950.84" y1="209.92" x2="840.11" y2="98.68"/><line class="cls-3" x1="721.33" y1="98.84" x2="840.11" y2="98.68"/><text class="cls-5" transform="translate(728.91 60.8) rotate(-0.08)"><tspan class="cls-6">R</tspan><tspan x="11.51" y="0">ig</tspan><tspan class="cls-7" x="28.16" y="0">h</tspan><tspan x="39.73" y="0">t</tspan><tspan class="cls-8" x="46.68" y="0"> </tspan><tspan class="cls-21" x="50.27" y="0">T</tspan><tspan class="cls-16" x="60.56" y="0">humbstick</tspan><tspan class="cls-27" x="0" y="25.2">(</tspan><tspan class="cls-9" x="6.97" y="25.2">T</tspan><tspan class="cls-16" x="16.46" y="25.2">u</tspan><tspan class="cls-15" x="28.03" y="25.2">r</tspan><tspan x="34.99" y="25.2">ning)</tspan></text><line class="cls-4" x1="360.14" y1="211" x2="393.51" y2="58.65"/><line class="cls-3" x1="393.51" y1="58.65" x2="191.32" y2="55.67"/><text class="cls-5" transform="translate(193.17 21.6)"><tspan class="cls-13">L</tspan><tspan x="9.62" y="0">e</tspan><tspan class="cls-14" x="20.14" y="0">f</tspan><tspan x="26.5" y="0">t</tspan><tspan class="cls-8" x="33.45" y="0"> </tspan><tspan class="cls-21" x="37.04" y="0">T</tspan><tspan x="47.33" y="0">humbstick (</tspan><tspan class="cls-28" x="149.88" y="0">P</tspan><tspan class="cls-24" x="160.71" y="0">r</tspan><tspan x="167.37" y="0">ess)</tspan><tspan x="0" y="25.2">(</tspan><tspan class="cls-22" x="5.96" y="25.2">S</tspan><tspan class="cls-25" x="16.44" y="25.2">ele</tspan><tspan class="cls-29" x="42.44" y="25.2">c</tspan><tspan x="52.12" y="25.2">t)</tspan></text><line class="cls-4" x1="950.84" y1="209.92" x2="955.51" y2="98.86"/><line class="cls-3" x1="955.51" y1="98.86" x2="1074.29" y2="98.86"/><text class="cls-5" transform="translate(963.19 60.77)"><tspan class="cls-6">R</tspan><tspan x="11.51" y="0">ig</tspan><tspan class="cls-7" x="28.16" y="0">h</tspan><tspan x="39.73" y="0">t</tspan><tspan class="cls-8" x="46.68" y="0"> </tspan><tspan class="cls-21" x="50.27" y="0">T</tspan><tspan class="cls-16" x="60.56" y="0">humbstick (</tspan><tspan class="cls-28" x="163.11" y="0">P</tspan><tspan class="cls-24" x="173.94" y="0">r</tspan><tspan x="180.6" y="0">ess)</tspan><tspan x="0" y="25.2">(</tspan><tspan class="cls-30" x="5.96" y="25.2">S</tspan><tspan x="16.25" y="25.2">ta</tspan><tspan class="cls-31" x="33.33" y="25.2">r</tspan><tspan x="40.7" y="25.2">t)</tspan></text></g></svg>