<svg xmlns="http://www.w3.org/2000/svg" viewBox="0 0 1763.78 783.73"><defs><style>.cls-1,.cls-10,.cls-2{fill:#fff;}.cls-2{font-size:21px;font-family:MyriadPro-Regular, Myriad Pro;}.cls-3{letter-spacing:0.01em;}.cls-4{letter-spacing:0em;}.cls-5{letter-spacing:-0.04em;}.cls-6{letter-spacing:-0.04em;}.cls-7{letter-spacing:0em;}.cls-8{letter-spacing:0.01em;}.cls-9{letter-spacing:0.06em;}.cls-10,.cls-11{stroke:#fff;stroke-miterlimit:10;stroke-width:3px;}.cls-11{fill:none;}.cls-12{letter-spacing:-0.01em;}.cls-13{letter-spacing:0.01em;}.cls-14{letter-spacing:0em;}.cls-15{letter-spacing:0em;}.cls-16{letter-spacing:-0.09em;}.cls-17{letter-spacing:0.06em;}.cls-18{letter-spacing:-0.01em;}.cls-19{letter-spacing:-0.01em;}.cls-20{letter-spacing:-0.01em;}.cls-21{letter-spacing:0.01em;}.cls-22{letter-spacing:-0.01em;}.cls-23{letter-spacing:-0.01em;}.cls-24{letter-spacing:0em;}.cls-25{letter-spacing:-0.01em;}.cls-26{letter-spacing:0.05em;}.cls-27{letter-spacing:0.01em;}.cls-28{letter-spacing:0em;}.cls-29{letter-spacing:0.02em;}</style></defs><g id="Controller"><path class="cls-1" d="M1379.78,490.45c-9.1,0-17.8.2-26.5-.1-2.5-.1-6.3-1.5-7-3.2-1.1-2.7-.8-8.8.2-9.1,13.1-4.2,18.7-15.9,26.5-25.5,6.4-7.9,5.6-17,6.2-26,1.1-17.9,3.9-35.9,2.6-53.7-1.6-23-15.5-40-34.4-52.6-18-12-37.7-19.8-58.7-24.8-5.3-1.3-9-.7-12.9,3.2s-8.8,6.9-13.1,10.5c-15.7,12.9-32.2,12.6-49.2,2.9-11.9-6.8-23.9-13.5-35.6-20.7a21.36,21.36,0,0,1-7.5-8.8c-4-9.3-7.1-19-10.7-28.8,10.1-12.9,20.3-25.8,31.3-39.9-3.8-2.4-7.3-4.5-10.7-6.9-9.2-6.3-10.1-13.8-1.3-20.8,9.4-7.5,19.9-13.7,29.9-20.3,8.3-5.5,16.5-11,25-16a13.23,13.23,0,0,1,8.7-1.5c56.2,12.3,111.5,27.7,165.1,48.7,23.1,9,45.8,18.9,68.6,28.7a15.07,15.07,0,0,1,7.1,7c18.6,41.7,33.3,84.7,37.2,130.6,1.4,16.3,8.6,30.7,13.2,45.9,6.8,22.3,6.5,44.8.3,67.4a47.94,47.94,0,0,0-1.3,14.2q2.85,86.1,5.8,172.1l6.6,194.7c.6,17.5-2.1,34.1-11.5,49.3-11.5,18.6-36,29.3-56.2,23.2-16-4.8-24.1-18.1-30.9-32-8.7-17.8-11.1-37.3-14.5-56.6-4.8-26.9-9.6-53.8-14.1-80.7q-7.05-42.3-13.6-84.8c-4.8-31.2-9.9-62.3-14.1-93.6-3.9-29.2-6.8-58.5-10.2-87.7A28.07,28.07,0,0,0,1379.78,490.45Zm-184.3-277.3c-6.2,8-11.5,16.5-18.5,23.3-11,10.9-16.1,21.8-6.4,36.1,3.6,5.3,5.2,13,9.9,16.5,11.1,8,23.4,14.3,35.4,20.8,14.5,7.8,29.1,8.7,42.9-1.9,5.7-4.4,11.1-9.3,16.9-13.5,2.4-1.7,5.9-3.4,8.4-2.9,28.2,5.7,54.9,15.4,76.6,35.1,18.2,16.6,28.3,37.4,25.2,62.3-4.5,36.1-6,72.3-2.1,108.5,4,37.8,9,75.5,14.3,113.1,6,42.5,12.6,84.9,19.4,127.3,6,37,12.2,73.9,19.4,110.7,3.4,17.2,7.5,34.7,14.6,50.6,17.2,38.4,48.2,35,71.6,15.1,13.2-11.1,17.8-26.8,18.4-43.1.7-19-.4-38.1-1-57.1-1.3-43.8-2.6-87.5-4.2-131.3-1.9-54.4-4.1-108.8-6.1-163.3-.3-8.6,0-17.2,0-25.8-.8-.1-1.6-.1-2.5-.2-1.8,3-3.5,5.9-5.3,8.9-8.7,14-22.2,20-36.9,16-10.2-2.7-16.6-10.5-21.9-18.9-19.6-31.2-21.2-86.8,5.3-119.8,8.2-10.2,19.1-15.9,32.4-12,6.1,1.8,11.5,6,18.3,9.7-1.7-10.7-3.8-20.9-4.9-31.2-4.2-38.9-18.8-74.6-33.8-110a11.47,11.47,0,0,0-7.3-5.8c-81-13.8-157.7-41.1-231.4-77.3-2.4-1.2-6.7-.6-9,.9-14,8.5-27.6,17.6-41.3,26.5-4,2.6-8.3,5.1-11.8,8.4-4.4,4.1-6.4,8.8.1,13.2C1185.08,205.35,1189.78,209,1195.48,213.15Zm340.4,235c-.3-28.9-6.2-49.3-17.9-64.4-14.2-18.3-35.8-16.6-48.1,2.8-10.1,16-14.4,33.3-15,51.7-.8,24,2.8,47.2,18.6,66.6,12,14.7,29.8,14.6,42.3.6C1531.38,488.25,1534.48,467.05,1535.88,448.15Zm-279.5-293c66.3,33.1,135.6,56.9,208.7,69.5C1398.38,193,1328.28,171.25,1256.38,155.15Zm122.3,297.7c-10.3,10.7-19.7,20.5-29.4,30.6,3.8,6.2,15,5.4,29.4,2Z" transform="translate(-83.28 -148.13)"/><path class="cls-1" d="M1399.68,552.65c-.2-13.1,6.1-16.9,16-11.7,8.8,4.5,14,11.5,15.2,21.2,3,24.1,6.6,48.3,8.4,72.5.5,6.6-3.7,14.2-7.4,20.3-1.5,2.5-8.5,4.3-11,2.9-4.1-2.4-8.6-7.3-9.3-11.7-3.6-22.7-6-45.6-8.8-68.4C1401.78,568.85,1400.58,559.75,1399.68,552.65Zm3.2-1.2c.2,1.4.4,3.5.7,5.7,2.4,19.1,4.8,38.1,7.3,57.2,1.4,10.8,2.6,21.8,4.9,32.4.7,3.4,4.7,7.5,7.9,8.3,2.4.6,7.2-2.9,8.8-5.8,2.4-4.2,4.3-9.7,3.9-14.3-2.2-23.4-5-46.7-8.1-70-1.2-9-5.1-16.9-13.8-21.3C1406.78,539.65,1402.68,542.25,1402.88,551.45Z" transform="translate(-83.28 -148.13)"/><path class="cls-1" d="M1515.18,569.55c-.6,10-5.3,17.5-11.9,18.2-7.1.7-14.1-7-14.9-16.9-.3-3.4-.4-7.5,1.2-10.2,2.4-4,6.2-9.7,9.6-9.8,4.2-.2,9.5,3.8,12.8,7.4C1514.28,560.85,1514.18,565.65,1515.18,569.55Zm-4.1,2.9c.2-11.8-4.5-19.3-10.5-19.2-5.6.2-9.7,7.5-9.2,16.6.4,8,5.8,15.6,11.1,14.4C1510,582.65,1510.78,576.15,1511.08,572.45Z" transform="translate(-83.28 -148.13)"/><path class="cls-1" d="M1496.88,331.15c0,12.1-5.1,16.3-13.4,15.5-6.1-.6-12.2-8.1-13.6-16.7-1.3-8.2,2.2-17.3,7.8-19.5,6.4-2.6,11.4.9,14.4,5.6C1495,320.45,1496.28,325.45,1496.88,331.15Zm-3.3-.1c.1-7.4-2.1-13.8-9-17.3-2-1-6.3-.3-7.8,1.2-5.3,5.4-4.2,12.1-1.9,18.6,2,5.5,4.7,10.8,11.6,9.9S1493.48,336.55,1493.58,331.05Z" transform="translate(-83.28 -148.13)"/><path class="cls-1" d="M539.37,494.75c-3.4,29.2-6.3,58.5-10.2,87.7-4.2,31.3-9.3,62.4-14.1,93.6q-6.6,42.45-13.6,84.8c-4.5,26.9-9.3,53.8-14.1,80.7-3.4,19.3-5.8,38.8-14.5,56.6-6.8,13.9-14.9,27.2-30.9,32-20.2,6.1-44.7-4.6-56.2-23.2-9.4-15.2-12.1-31.8-11.5-49.3l6.6-194.7q2.85-86.1,5.8-172.1a47.94,47.94,0,0,0-1.3-14.2c-6.2-22.6-6.5-45.1.3-67.4,4.6-15.2,11.8-29.6,13.2-45.9,3.9-45.9,18.6-88.9,37.2-130.6a15.07,15.07,0,0,1,7.1-7c22.8-9.8,45.5-19.7,68.6-28.7,53.6-21,108.9-36.4,165.1-48.7a13.23,13.23,0,0,1,8.7,1.5c8.5,5,16.7,10.5,25,16,10,6.6,20.5,12.8,29.9,20.3,8.8,7,7.9,14.5-1.3,20.8-3.4,2.4-6.9,4.5-10.7,6.9,11,14.1,21.2,27,31.3,39.9-3.6,9.8-6.7,19.5-10.7,28.8a21.36,21.36,0,0,1-7.5,8.8c-11.7,7.2-23.7,13.9-35.6,20.7-17,9.7-33.5,10-49.2-2.9-4.3-3.6-9.2-6.6-13.1-10.5s-7.6-4.5-12.9-3.2c-21,5-40.7,12.8-58.7,24.8-18.9,12.6-32.8,29.6-34.4,52.6-1.3,17.8,1.5,35.8,2.6,53.7.6,9-.2,18.1,6.2,26,7.8,9.6,13.4,21.3,26.5,25.5,1,.3,1.3,6.4.2,9.1-.7,1.7-4.5,3.1-7,3.2-8.7.3-17.4.1-26.5.1A28.07,28.07,0,0,0,539.37,494.75Zm199.9-292.7c6.5-4.4,4.5-9.1.1-13.2-3.5-3.3-7.8-5.8-11.8-8.4-13.7-8.9-27.3-18-41.3-26.5-2.3-1.5-6.6-2.1-9-.9-73.7,36.2-150.4,63.5-231.4,77.3a11.47,11.47,0,0,0-7.3,5.8c-15,35.4-29.6,71.1-33.8,110-1.1,10.3-3.2,20.5-4.9,31.2,6.8-3.7,12.2-7.9,18.3-9.7,13.3-3.9,24.2,1.8,32.4,12,26.5,33,24.9,88.6,5.3,119.8-5.3,8.4-11.7,16.2-21.9,18.9-14.7,4-28.2-2-36.9-16-1.8-3-3.5-5.9-5.3-8.9-.9.1-1.7.1-2.5.2,0,8.6.3,17.2,0,25.8-2,54.5-4.2,108.9-6.1,163.3-1.6,43.8-2.9,87.5-4.2,131.3-.6,19-1.7,38.1-1,57.1.6,16.3,5.2,32,18.4,43.1,23.4,19.9,54.4,23.3,71.6-15.1,7.1-15.9,11.2-33.4,14.6-50.6,7.2-36.8,13.4-73.7,19.4-110.7,6.8-42.4,13.4-84.8,19.4-127.3,5.3-37.6,10.3-75.3,14.3-113.1,3.9-36.2,2.4-72.4-2.1-108.5-3.1-24.9,7-45.7,25.2-62.3,21.7-19.7,48.4-29.4,76.6-35.1,2.5-.5,6,1.2,8.4,2.9,5.8,4.2,11.2,9.1,16.9,13.5,13.8,10.6,28.4,9.7,42.9,1.9,12-6.5,24.3-12.8,35.4-20.8,4.7-3.5,6.3-11.2,9.9-16.5,9.7-14.3,4.6-25.2-6.4-36.1-7-6.8-12.3-15.3-18.5-23.3C729.67,209,734.37,205.35,739.27,202.05Zm-335.6,303.4c12.5,14,30.3,14.1,42.3-.6,15.8-19.4,19.4-42.6,18.6-66.6-.6-18.4-4.9-35.7-15-51.7-12.3-19.4-33.9-21.1-48.1-2.8-11.7,15.1-17.6,35.5-17.9,64.4C385,467.05,388.07,488.25,403.67,505.45Zm50.7-280.8c73.1-12.6,142.4-36.4,208.7-69.5C591.17,171.25,521.07,193,454.37,224.65Zm86.4,260.8c14.4,3.4,25.6,4.2,29.4-2-9.7-10.1-19.1-19.9-29.4-30.6Z" transform="translate(-83.28 -148.13)"/><path class="cls-1" d="M516.67,577.75c-2.8,22.8-5.2,45.7-8.8,68.4-.7,4.4-5.2,9.3-9.3,11.7-2.5,1.4-9.5-.4-11-2.9-3.7-6.1-7.9-13.7-7.4-20.3,1.8-24.2,5.4-48.4,8.4-72.5,1.2-9.7,6.4-16.7,15.2-21.2,9.9-5.2,16.2-1.4,16,11.7C518.87,559.75,517.67,568.85,516.67,577.75ZM505,543.65c-8.7,4.4-12.6,12.3-13.8,21.3-3.1,23.3-5.9,46.6-8.1,70-.4,4.6,1.5,10.1,3.9,14.3,1.6,2.9,6.4,6.4,8.8,5.8,3.2-.8,7.2-4.9,7.9-8.3,2.3-10.6,3.5-21.6,4.9-32.4,2.5-19.1,4.9-38.1,7.3-57.2.3-2.2.5-4.3.7-5.7C516.77,542.25,512.67,539.65,505,543.65Z" transform="translate(-83.28 -148.13)"/><path class="cls-1" d="M407.47,558.25c3.3-3.6,8.6-7.6,12.8-7.4,3.4.1,7.2,5.8,9.6,9.8,1.6,2.7,1.5,6.8,1.2,10.2-.8,9.9-7.8,17.6-14.9,16.9-6.6-.7-11.3-8.2-11.9-18.2C405.27,565.65,405.17,560.85,407.47,558.25Zm9.5,26c5.3,1.2,10.7-6.4,11.1-14.4.5-9.1-3.6-16.4-9.2-16.6-6-.1-10.7,7.4-10.5,19.2C408.67,576.15,409.47,582.65,417,584.25Z" transform="translate(-83.28 -148.13)"/><path class="cls-1" d="M427.37,316.05c3-4.7,8-8.2,14.4-5.6,5.6,2.2,9.1,11.3,7.8,19.5-1.4,8.6-7.5,16.1-13.6,16.7-8.3.8-13.4-3.4-13.4-15.5C423.17,325.45,424.47,320.45,427.37,316.05Zm5.6,27.4c6.9.9,9.6-4.4,11.6-9.9,2.3-6.5,3.4-13.2-1.9-18.6-1.5-1.5-5.8-2.2-7.8-1.2-6.9,3.5-9.1,9.9-9,17.3C426,336.55,426,342.55,433,343.45Z" transform="translate(-83.28 -148.13)"/></g><g id="Controls"><text class="cls-2" transform="translate(1090.48 379.22) rotate(-0.58)"><tspan class="cls-3">R</tspan><tspan x="11.51" y="0">ig</tspan><tspan class="cls-4" x="28.16" y="0">h</tspan><tspan x="39.73" y="0">t</tspan><tspan class="cls-5" x="46.68" y="0"> </tspan><tspan class="cls-6" x="50.27" y="0">T</tspan><tspan class="cls-7" x="59.77" y="0">r</tspan><tspan x="66.72" y="0">igger (</tspan><tspan class="cls-8" x="122.91" y="0">R</tspan><tspan class="cls-9" x="134.4" y="0">T</tspan><tspan x="146.09" y="0">)</tspan></text><line class="cls-10" x1="466.31" y1="328.44" x2="521.04" y2="397.42"/><line class="cls-11" x1="665.35" y1="397.42" x2="521.04" y2="397.42"/><text class="cls-2" transform="translate(529.27 390.29)"><tspan class="cls-12">L</tspan><tspan x="9.62" y="0">e</tspan><tspan class="cls-13" x="20.14" y="0">f</tspan><tspan x="26.5" y="0">t</tspan><tspan class="cls-5" x="33.45" y="0"> </tspan><tspan class="cls-6" x="37.04" y="0">T</tspan><tspan class="cls-14" x="46.54" y="0">r</tspan><tspan class="cls-15" x="53.49" y="0">igger (</tspan><tspan class="cls-16" x="109.68" y="0">L</tspan><tspan class="cls-17" x="117.75" y="0">T</tspan><tspan x="129.44" y="0">)</tspan></text><line class="cls-10" x1="412.13" y1="443.62" x2="463.19" y2="523.07"/><line class="cls-11" x1="609.73" y1="521.59" x2="463.19" y2="523.07"/><text class="cls-2" transform="translate(471.39 515.9) rotate(-0.58)"><tspan class="cls-12">L</tspan><tspan x="9.62" y="0">e</tspan><tspan class="cls-13" x="20.14" y="0">f</tspan><tspan x="26.5" y="0">t But</tspan><tspan class="cls-18" x="67.81" y="0">t</tspan><tspan class="cls-15" x="74.63" y="0">on (LB)</tspan></text><text class="cls-2" transform="translate(1134.3 489.94) rotate(0.58)"><tspan class="cls-3">R</tspan><tspan x="11.51" y="0">ig</tspan><tspan class="cls-4" x="28.16" y="0">h</tspan><tspan x="39.73" y="0">t But</tspan><tspan class="cls-18" x="81.04" y="0">t</tspan><tspan x="87.86" y="0">on (RB)</tspan><tspan x="0" y="25.2">(Sp</tspan><tspan class="cls-14" x="28.27" y="25.2">r</tspan><tspan class="cls-15" x="35.22" y="25.2">i</tspan><tspan class="cls-4" x="40.13" y="25.2">n</tspan><tspan x="51.7" y="25.2">t)</tspan></text><line class="cls-10" x1="342.58" y1="241.1" x2="290.9" y2="226.15"/><line class="cls-11" x1="290.9" y1="226.15" x2="172.12" y2="226.15"/><text class="cls-2" transform="translate(180.35 219.02)">Y But<tspan class="cls-18" x="45.72" y="0">t</tspan><tspan x="52.54" y="0">on</tspan></text><line class="cls-10" x1="339.28" y1="341.65" x2="270.42" y2="350.23"/><line class="cls-11" x1="270.42" y1="350.23" x2="151.63" y2="350.23"/><text class="cls-2" transform="translate(159.87 343.1)">X But<tspan class="cls-19" x="46.35" y="0">t</tspan><tspan x="53.17" y="0">on</tspan></text><text class="cls-2" transform="translate(1493.31 219.25)">B But<tspan class="cls-18" x="45.74" y="0">t</tspan><tspan class="cls-15" x="52.56" y="0">on</tspan></text><text class="cls-2" transform="translate(1512.77 345.94)">A But<tspan class="cls-18" x="47.21" y="0">t</tspan><tspan x="54.03" y="0">on</tspan></text><line class="cls-10" x1="339.28" y1="295.3" x2="118.79" y2="317.98"/><line class="cls-11" x1="118.79" y1="317.98" y2="317.98"/><text class="cls-2" transform="translate(1.36 250.81)"><tspan class="cls-12">L</tspan><tspan x="9.62" y="0">e</tspan><tspan class="cls-13" x="20.14" y="0">f</tspan><tspan x="26.5" y="0">t</tspan><tspan class="cls-5" x="33.45" y="0"> </tspan><tspan class="cls-20" x="37.04" y="0">T</tspan><tspan x="47.33" y="0">humbstick</tspan><tspan x="0" y="25.2">(</tspan><tspan class="cls-21" x="5.96" y="25.2">M</tspan><tspan class="cls-22" x="22.97" y="25.2">o</tspan><tspan class="cls-23" x="34.36" y="25.2">v</tspan><tspan class="cls-24" x="44.25" y="25.2">eme</tspan><tspan class="cls-4" x="82.8" y="25.2">n</tspan><tspan x="94.37" y="25.2">t)</tspan><tspan x="0" y="50.4">(UI N</tspan><tspan class="cls-25" x="42.84" y="50.4">a</tspan><tspan x="52.79" y="50.4">vig</tspan><tspan class="cls-4" x="79.55" y="50.4">a</tspan><tspan class="cls-15" x="89.58" y="50.4">tion)</tspan></text><text class="cls-2" transform="translate(1597.98 282.1)"><tspan class="cls-3">R</tspan><tspan x="11.51" y="0">ig</tspan><tspan class="cls-4" x="28.16" y="0">h</tspan><tspan x="39.73" y="0">t</tspan><tspan class="cls-5" x="46.68" y="0"> </tspan><tspan class="cls-20" x="50.27" y="0">T</tspan><tspan class="cls-15" x="60.56" y="0">humbstick</tspan><tspan class="cls-26" x="0" y="25.2">(</tspan><tspan class="cls-6" x="6.97" y="25.2">T</tspan><tspan class="cls-15" x="16.46" y="25.2">u</tspan><tspan class="cls-14" x="28.03" y="25.2">r</tspan><tspan x="34.99" y="25.2">ning)</tspan></text><line class="cls-10" x1="352.92" y1="178.21" x2="323.47" y2="103.15"/><line class="cls-11" x1="323.47" y1="103.15" x2="191.22" y2="101.2"/><text class="cls-2" transform="translate(193.07 67.14)"><tspan class="cls-21">M</tspan><tspan x="17.01" y="0">enu But</tspan><tspan class="cls-18" x="85.11" y="0">t</tspan><tspan x="91.94" y="0">on</tspan><tspan x="0" y="25.2">(</tspan><tspan class="cls-21" x="5.96" y="25.2">S</tspan><tspan class="cls-24" x="16.44" y="25.2">ele</tspan><tspan class="cls-27" x="42.44" y="25.2">c</tspan><tspan x="52.12" y="25.2">t)</tspan></text><circle class="cls-11" cx="340.84" cy="240.59" r="18.33"/><circle class="cls-11" cx="340.84" cy="341.67" r="18.33"/><line class="cls-10" x1="1336.21" y1="450.22" x2="1285.15" y2="529.67"/><line class="cls-11" x1="1138.6" y1="528.19" x2="1285.15" y2="529.67"/><line class="cls-10" x1="1289.52" y1="322.93" x2="1234.8" y2="391.9"/><line class="cls-11" x1="1090.48" y1="391.91" x2="1234.8" y2="391.9"/><line class="cls-10" x1="1407.82" y1="245.27" x2="1459.5" y2="230.32"/><line class="cls-11" x1="1459.5" y1="230.32" x2="1578.28" y2="230.32"/><line class="cls-10" x1="1411.12" y1="345.82" x2="1479.98" y2="354.4"/><line class="cls-11" x1="1479.98" y1="354.4" x2="1598.77" y2="354.4"/><circle class="cls-11" cx="1409.57" cy="244.76" r="18.33"/><circle class="cls-11" cx="1409.57" cy="345.84" r="18.33"/><line class="cls-10" x1="1399.13" y1="180.28" x2="1428.58" y2="105.22"/><line class="cls-11" x1="1428.58" y1="105.22" x2="1560.83" y2="103.27"/><text class="cls-2" transform="translate(1445.55 67.14)"><tspan class="cls-21">M</tspan><tspan x="17.01" y="0">enu But</tspan><tspan class="cls-18" x="85.11" y="0">t</tspan><tspan x="91.94" y="0">on</tspan><tspan x="0" y="25.2">(</tspan><tspan class="cls-28" x="5.96" y="25.2">S</tspan><tspan x="16.25" y="25.2">ta</tspan><tspan class="cls-29" x="33.33" y="25.2">r</tspan><tspan x="40.7" y="25.2">t)</tspan></text><line class="cls-10" x1="1408.64" y1="294.26" x2="1598.51" y2="317.98"/><line class="cls-11" x1="1598.51" y1="317.98" x2="1763.78" y2="317.98"/></g></svg>