<svg xmlns="http://www.w3.org/2000/svg" viewBox="0 0 1552.12 789.25"><defs><style>.cls-1,.cls-2,.cls-4{fill:#fff;}.cls-2,.cls-3{stroke:#fff;stroke-miterlimit:10;stroke-width:3px;}.cls-3{fill:none;}.cls-4{font-size:21px;font-family:MyriadPro-Regular, Myriad Pro;}.cls-5{letter-spacing:0.01em;}.cls-6{letter-spacing:0em;}.cls-7{letter-spacing:-0.04em;}.cls-8{letter-spacing:-0.04em;}.cls-9{letter-spacing:0em;}.cls-10{letter-spacing:0.01em;}.cls-11{letter-spacing:0.06em;}.cls-12{letter-spacing:-0.01em;}.cls-13{letter-spacing:0.01em;}.cls-14{letter-spacing:0em;}.cls-15{letter-spacing:0em;}.cls-16{letter-spacing:-0.09em;}.cls-17{letter-spacing:0.06em;}.cls-18{letter-spacing:-0.01em;}.cls-19{letter-spacing:-0.01em;}.cls-20{letter-spacing:-0.01em;}.cls-21{letter-spacing:0.01em;}.cls-22{letter-spacing:-0.01em;}.cls-23{letter-spacing:-0.01em;}.cls-24{letter-spacing:0em;}.cls-25{letter-spacing:-0.01em;}.cls-26{letter-spacing:0.05em;}.cls-27{letter-spacing:-0.02em;}.cls-28{letter-spacing:0.01em;}.cls-29{letter-spacing:0em;}.cls-30{letter-spacing:0.02em;}</style></defs><g id="Controllers"><g id="Windows_Button" data-name="Windows Button"><path class="cls-1" d="M1483.23,608.14c-4.84-8-1.49-17.72,4-23.85a32.29,32.29,0,0,1,12.79-8.78,25,25,0,0,1,12.44-1.34,18.32,18.32,0,0,1,9,4,16.08,16.08,0,0,1,5.54,12c.2,10.19-7.63,18.81-15.49,22.83a29,29,0,0,1-3.44,1.51C1499.78,617.49,1488.48,616.79,1483.23,608.14Zm6.06-22c-4.77,5.37-7.76,13.8-3.66,20.54,4.43,7.3,14.23,7.79,21.46,5.16a28.82,28.82,0,0,0,3.13-1.37c7.07-3.63,14.13-11.31,14-20.28a13.3,13.3,0,0,0-4.56-9.92,15.43,15.43,0,0,0-7.62-3.34,22.1,22.1,0,0,0-11,1.2A29.54,29.54,0,0,0,1489.29,586.15Z" transform="translate(-158.75 -140.18)"/></g><g id="Menu_button" data-name="Menu button"><path class="cls-1" d="M1430.32,566h0a16.79,16.79,0,1,1,1.63-.5C1431.42,565.64,1430.87,565.81,1430.32,566Zm-16.81-22.23a14,14,0,0,0,16.12,19.51h0a14,14,0,0,0-6.83-27.18c-.47.12-.92.26-1.37.42A14,14,0,0,0,1413.51,543.72Z" transform="translate(-158.75 -140.18)"/></g><g id="Thumbstick"><path class="cls-1" d="M1325.5,526.78a35,35,0,1,1,44.9,20.94A35.07,35.07,0,0,1,1325.5,526.78Zm2.63-1a32.23,32.23,0,1,0,19.27-41.31A32.28,32.28,0,0,0,1328.13,525.82Z" transform="translate(-158.75 -140.18)"/><path class="cls-1" d="M1316.28,530.13a44.84,44.84,0,1,1,57.48,26.81A44.9,44.9,0,0,1,1316.28,530.13Zm2.63-1A42,42,0,1,0,1344,475.3,42.09,42.09,0,0,0,1318.91,529.17Z" transform="translate(-158.75 -140.18)"/></g><g id="Touchpad"><path class="cls-1" d="M1418.43,493.06a69.93,69.93,0,1,1,89.64,41.8A70,70,0,0,1,1418.43,493.06Zm2.63-1a67.13,67.13,0,1,0,40.13-86A67.21,67.21,0,0,0,1421.06,492.1Z" transform="translate(-158.75 -140.18)"/></g><g id="Body_Trigger_Grip" data-name="Body + Trigger + Grip"><path class="cls-1" d="M1511.13,916.18c18.44-6.71,28.54-15.57,36-47.75,7.19-31,11.89-83.18,20.25-180.46,9.4-109.36,8-193.69-3.79-237.45-.6-2.35-1.61-5.09-2.51-7.51-.21-.56-.41-1.12-.61-1.65l-2.63,1,.61,1.67a76,76,0,0,1,2.43,7.24c11.77,43.48,13.08,127.46,3.71,236.5-8.35,97.15-13,149.28-20.19,180.07s-16.76,39.39-34.24,45.75c-21.54,7.84-52.68,16.26-78.72,11.88-23-3.88-31.16-25.44-31.56-26.57-5.78-27.75-9.49-149.56-10.59-224.74l-2.8,0c.76,52.14,4.15,194.27,10.66,225.35,0,.24,8.52,24.43,33.82,28.68C1457.63,932.68,1489.27,924.14,1511.13,916.18Z" transform="translate(-158.75 -140.18)"/><path class="cls-1" d="M1279.11,543.77c.64,1.78,1.35,3.51,2.09,5.22a105.57,105.57,0,0,0,105.85,63.33c0,1.67,0,4.51.09,8.38a6.3,6.3,0,0,0-2.26.29h0l-.1,0c-.89.34-1.85,1.37-3.65,5.28a53,53,0,0,0-.58,42.65c2.14,5.09,2.79,5.88,3.28,6.25a3.13,3.13,0,0,0,.4.28,5,5,0,0,0,4.35.43,4.81,4.81,0,0,0,.77-.35,5.37,5.37,0,0,0,2.77-4.65l.22-44.92a5.28,5.28,0,0,0-2.37-4.45c-.06-4.53-.09-7.77-.11-9.5a105.4,105.4,0,0,0,14.42-2.69l.13,0a1.4,1.4,0,0,0-.84-2.67,101.83,101.83,0,0,1-92.11-21.09,86.85,86.85,0,0,0,79,10.14l118.11-43A86.87,86.87,0,0,0,1490.22,385l-.57-.21a149.3,149.3,0,0,0-16.89-5.4c-10.31-2.54-19-5.4-32.3-.55l-13,4.73c-8.6,3.13-16.77,11.37-23.44,22.33l-73,26.56a87,87,0,0,0-52.13,110.75.24.24,0,0,0,0,.08l.1.27Zm108.1,79.73a2.46,2.46,0,0,1,2.32,2.49l-.23,44.92a2.55,2.55,0,0,1-1.32,2.21,2.26,2.26,0,0,1-2.3,0l-.1-.06a31.44,31.44,0,0,1-2.46-5.16,50.22,50.22,0,0,1,.55-40.4c1.37-3,2-3.71,2.17-3.86A4,4,0,0,1,1387.21,623.5Zm88-239.23a86.58,86.58,0,0,0-26,5.16l-40.62,14.79c6.07-8.06,12.64-15.41,19.9-18.06l13-4.73c12.7-4.62,21-1.75,30.67.64,2.57.63,5,1.34,7.35,2.08C1478,384.15,1476.59,384.2,1475.17,384.27Zm-191.75,162.8c-.62-1.48-1.21-3-1.77-4.51A84.18,84.18,0,0,1,1332,435.05l69.8-25.4,1.76-.64,46.79-17a85.54,85.54,0,0,1,25.27-4.92,84.08,84.08,0,0,1,32,163l-118.11,43A84.18,84.18,0,0,1,1283.42,547.07Z" transform="translate(-158.75 -140.18)"/></g><g id="Constellation"><path class="cls-1" d="M1123,403.43c8.21,8.62,35.92,37,48.31,40.4h.07l.16.05.33.09,0,0c4.87.88,22-2.32,99.91-29.59l11.56-4.21c31.12-10.56,69.52-23.87,116.32-41.62,25.16-9.55,47.08-18.09,66.18-25.72l0,0q6-2.43,11.85-4.82,5-2,9.33-3.82c65.12-26.8,111.6-48,116.06-52.17l.17-.23c4.16-5.41,9-35.87,11.32-62.2,1.47-16.81,4.05-56.93-3.73-66.29-3.65-4.39-18.55-7.05-105.45,20.4-52.15,16.47-113,38.3-165.74,57.48-48.9,17.8-113.26,44.7-164,68.53-27.9,13.12-49.88,24.43-65.32,33.62-23.85,14.2-25.84,19.61-24.9,22.73C1087.93,364.09,1106.64,386.24,1123,403.43Zm159.43,4.17q-25.17,8.53-37.84,13.27c-34.25,11.64-56.6,18.35-66.8,20.07,22-11.25,80.82-40.22,222.25-91.7,106.08-38.6,160.11-54.27,184.77-61.3l5.72-1.61c-20.4,9.79-64,29.13-119.74,51.61l-5.86,2.33c-19.25,7.67-41.21,16.23-66.22,25.71C1351.92,383.74,1313.54,397,1282.44,407.6Zm-194.29-52.29c-.5-1.67,1.43-12.05,88.76-53.1,50.63-23.8,114.89-50.66,163.72-68.43,52.67-19.17,113.53-41,165.63-57.44,82.84-26.17,99.79-24.56,102.53-21.27,4.87,5.87,6.07,30.51,3.11,64.32-2.46,28.15-7.28,55.57-10.61,60.55-3,1.59-8.77,3.24-19.94,6.42-24.69,7-76.07,21.68-182.23,60.32-150.4,54.74-207.51,84.08-226.27,93.73l-1.26.65c-8-2.6-25.76-17.63-46.6-39.51C1105.55,381.14,1090.06,361.69,1088.15,355.31Z" transform="translate(-158.75 -140.18)"/><path class="cls-1" d="M1276.93,313.64a8.19,8.19,0,1,0,4.9-10.5A8.19,8.19,0,0,0,1276.93,313.64Zm2.57-.93a5.46,5.46,0,1,1,7,3.26A5.48,5.48,0,0,1,1279.5,312.71Z" transform="translate(-158.75 -140.18)"/><path class="cls-1" d="M1209.31,395.56a8.2,8.2,0,1,0,4.9-10.5A8.2,8.2,0,0,0,1209.31,395.56Zm2.57-.93a5.46,5.46,0,1,1,7,3.26A5.47,5.47,0,0,1,1211.88,394.63Z" transform="translate(-158.75 -140.18)"/><path class="cls-1" d="M1117.75,354.14a8.2,8.2,0,1,0,4.89-10.5A8.2,8.2,0,0,0,1117.75,354.14Zm2.56-.94a5.46,5.46,0,1,1,7,3.27A5.47,5.47,0,0,1,1120.31,353.2Z" transform="translate(-158.75 -140.18)"/><path class="cls-1" d="M1520.74,195.13c1.47,4.08,5.58,5.85,9.17,3.94s5.31-6.77,3.83-10.85-5.59-5.86-9.18-3.95S1519.26,191,1520.74,195.13Zm2.16-1.15a6,6,0,0,1,2.55-7.24,4.29,4.29,0,0,1,6.12,2.63,6,6,0,0,1-2.55,7.24A4.29,4.29,0,0,1,1522.9,194Z" transform="translate(-158.75 -140.18)"/><path class="cls-1" d="M1372.06,245.59a8.2,8.2,0,1,0,4.9-10.5A8.19,8.19,0,0,0,1372.06,245.59Zm2.57-.93a5.46,5.46,0,1,1,7,3.26A5.48,5.48,0,0,1,1374.63,244.66Z" transform="translate(-158.75 -140.18)"/><path class="cls-1" d="M1464.48,297.05a7.39,7.39,0,0,0,10.18,3.92,8.55,8.55,0,0,0,4-10.86,7.4,7.4,0,0,0-10.18-3.91A8.54,8.54,0,0,0,1464.48,297.05Zm2.36-1.15a5.73,5.73,0,0,1,2.7-7.24,5,5,0,0,1,6.79,2.61,5.71,5.71,0,0,1-2.7,7.24A5,5,0,0,1,1466.84,295.9Z" transform="translate(-158.75 -140.18)"/><path class="cls-1" d="M1587,208.87c1.45,4,4.41,5.6,6.63,3.53s2.84-7,1.39-11-4.4-5.59-6.62-3.52S1585.57,204.86,1587,208.87Zm1.34-1.25c-1-2.67-.54-6,.93-7.33s3.46-.32,4.42,2.35.54,6-.94,7.34S1589.31,210.29,1588.35,207.62Z" transform="translate(-158.75 -140.18)"/><path class="cls-1" d="M1148.62,415.19c-.75,1.25,1.21,4.87,4.38,8.07s6.35,4.79,7.1,3.53-1.22-4.87-4.39-8.07S1149.36,413.93,1148.62,415.19Zm2.39,2.41c.43-.73,2.29.2,4.14,2.06s3,4,2.56,4.72-2.29-.2-4.14-2.07S1150.57,418.33,1151,417.6Z" transform="translate(-158.75 -140.18)"/></g><g id="Windows_Button-2" data-name="Windows Button"><path class="cls-1" d="M408.05,604.09a30.61,30.61,0,0,1-3.44-1.5c-7.86-4-15.69-12.65-15.49-22.83a16.07,16.07,0,0,1,5.54-12,18.23,18.23,0,0,1,9-4,24.84,24.84,0,0,1,12.44,1.33,32.29,32.29,0,0,1,12.79,8.78c5.46,6.14,8.81,15.9,4,23.86C427.62,606.41,416.32,607.1,408.05,604.09Zm7.1-36.33a22,22,0,0,0-11-1.2,15.42,15.42,0,0,0-7.62,3.33,13.3,13.3,0,0,0-4.56,9.92c-.17,9,6.89,16.66,14,20.28a25.39,25.39,0,0,0,3.13,1.37c7.23,2.63,17,2.14,21.46-5.16,4.1-6.74,1.11-15.17-3.66-20.54A29.42,29.42,0,0,0,415.15,567.76Z" transform="translate(-158.75 -140.18)"/></g><g id="Menu_button-2" data-name="Menu button"><path class="cls-1" d="M484.15,555.06a16.81,16.81,0,1,1,1.63.5h0C485.23,555.42,484.68,555.25,484.15,555.06Zm10.52-29c-.45-.16-.9-.3-1.37-.42a14,14,0,0,0-6.83,27.19h0a14,14,0,0,0,8.2-26.77Z" transform="translate(-158.75 -140.18)"/></g><g id="Thumbstick-2" data-name="Thumbstick"><path class="cls-1" d="M545.7,537.33a35,35,0,1,1,44.9-20.94A35.07,35.07,0,0,1,545.7,537.33Zm23-63.2A32.23,32.23,0,1,0,588,515.43,32.25,32.25,0,0,0,568.7,474.13Z" transform="translate(-158.75 -140.18)"/><path class="cls-1" d="M542.34,546.55a44.84,44.84,0,1,1,57.48-26.8A44.89,44.89,0,0,1,542.34,546.55Zm29.72-81.64a42,42,0,1,0,25.12,53.88A42.08,42.08,0,0,0,572.06,464.91Z" transform="translate(-158.75 -140.18)"/></g><g id="Touchpad-2" data-name="Touchpad"><path class="cls-1" d="M408,524.48a69.94,69.94,0,1,1,89.64-41.81A70,70,0,0,1,408,524.48Zm46.88-128.8a67.13,67.13,0,1,0,40.13,86A67.2,67.2,0,0,0,454.91,395.68Z" transform="translate(-158.75 -140.18)"/></g><g id="Body_Trigger_Grip-2" data-name="Body + Trigger + Grip"><path class="cls-1" d="M405,905.79c-18.44-6.71-28.54-15.57-36-47.75-7.19-31-11.89-83.18-20.25-180.46-9.4-109.36-8-193.68,3.79-237.45a78.58,78.58,0,0,1,2.51-7.5c.21-.57.41-1.12.61-1.65l2.63.95-.61,1.67c-.88,2.35-1.86,5-2.43,7.24-11.77,43.48-13.08,127.46-3.71,236.5,8.35,97.15,13.05,149.28,20.19,180.07s16.76,39.39,34.24,45.75c21.54,7.84,52.68,16.27,78.72,11.88,23.05-3.87,31.16-25.43,31.56-26.57,5.78-27.74,9.49-149.56,10.59-224.74l2.8,0c-.76,52.14-4.15,194.27-10.66,225.35-.05.24-8.52,24.42-33.82,28.68C458.47,922.29,426.83,913.75,405,905.79Z" transform="translate(-158.75 -140.18)"/><path class="cls-1" d="M637.08,533.14c0-.1.07-.19.1-.28a.19.19,0,0,0,0-.08A87,87,0,0,0,585.07,422l-73-26.56c-6.67-11-14.84-19.2-23.44-22.33l-13-4.73c-13.32-4.85-22-2-32.3.55a151.35,151.35,0,0,0-16.89,5.4l-.57.21a86.87,86.87,0,0,0-18.35,167.76l118.11,43a86.82,86.82,0,0,0,79-10.13,101.83,101.83,0,0,1-92.11,21.08,1.4,1.4,0,0,0-.84,2.67l.13,0a103.91,103.91,0,0,0,14.42,2.69c0,1.74,0,5-.11,9.51a5.25,5.25,0,0,0-2.37,4.45l.22,44.91a5.35,5.35,0,0,0,2.77,4.65,6,6,0,0,0,.77.36,5,5,0,0,0,4.35-.44,4.62,4.62,0,0,0,.4-.27c.49-.38,1.14-1.17,3.28-6.25a53,53,0,0,0-.58-42.66c-1.8-3.91-2.76-4.93-3.65-5.27l-.1,0h0a6.3,6.3,0,0,0-2.26-.29c0-3.86.07-6.7.09-8.37A105.56,105.56,0,0,0,634.9,538.6c.74-1.7,1.45-3.44,2.09-5.21Zm-106.82,80.1c.16.15.8.87,2.17,3.85a50.22,50.22,0,0,1,.55,40.4,31.44,31.44,0,0,1-2.46,5.16l-.1.06a2.23,2.23,0,0,1-2.3,0,2.55,2.55,0,0,1-1.32-2.21l-.23-44.92a2.45,2.45,0,0,1,2.32-2.48A3.5,3.5,0,0,1,530.26,613.24Zm-93.6-239.48c2.34-.74,4.78-1.44,7.35-2.08,9.68-2.38,18-5.26,30.67-.64l13,4.74c7.26,2.64,13.83,10,19.9,18.05L467,379.05a86.6,86.6,0,0,0-26-5.17C439.51,373.81,438.09,373.77,436.66,373.76ZM526.6,582.68l-118.11-43a84.08,84.08,0,0,1,32-163,85.86,85.86,0,0,1,25.27,4.92l46.79,17,1.76.64,69.8,25.41a84.18,84.18,0,0,1,50.34,107.51q-.84,2.28-1.77,4.5A84.18,84.18,0,0,1,526.6,582.68Z" transform="translate(-158.75 -140.18)"/></g><g id="Constellation-2" data-name="Constellation"><path class="cls-1" d="M830.57,345.71c.94-3.13-1.05-8.54-24.9-22.74-15.44-9.19-37.42-20.5-65.32-33.62-50.69-23.83-115.05-50.73-164-68.53-52.69-19.18-113.59-41-165.74-57.47-86.9-27.45-101.8-24.8-105.45-20.41-7.78,9.36-5.2,49.48-3.73,66.3,2.3,26.32,7.16,56.78,11.32,62.2l.17.22c4.46,4.15,50.94,25.37,116.06,52.17q4.29,1.79,9.33,3.83l11.85,4.82,0-.05c19.1,7.63,41,16.18,66.18,25.72,46.8,17.75,85.2,31.06,116.32,41.63l11.56,4.2c77.91,27.28,95,30.47,99.91,29.6h0l.32-.09.17,0h.07c12.39-3.42,40.1-31.78,48.31-40.4C809.46,375.85,828.17,353.71,830.57,345.71ZM517.38,355.6c-25-9.49-47-18.05-66.22-25.72l-5.86-2.33c-55.71-22.48-99.34-41.81-119.74-51.61l5.72,1.62c24.66,7,78.69,22.69,184.77,61.3,141.43,51.48,200.22,80.44,222.25,91.69-10.2-1.72-32.55-8.43-66.8-20.06q-12.69-4.69-37.84-13.28C602.56,386.66,564.18,373.35,517.38,355.6Zm273.73,35.56c-20.84,21.89-38.58,36.91-46.6,39.51l-1.26-.65c-18.76-9.64-75.87-39-226.27-93.73C410.82,297.65,359.44,283,334.75,276c-11.17-3.18-16.94-4.82-19.94-6.41-3.33-5-8.15-32.4-10.61-60.56-3-33.81-1.76-58.45,3.11-64.31,2.74-3.29,19.69-4.9,102.53,21.26,52.1,16.46,113,38.27,165.63,57.44C624.3,241.16,688.56,268,739.19,291.82c87.33,41.06,89.26,51.44,88.76,53.1C826,351.31,810.55,370.75,791.11,391.16Z" transform="translate(-158.75 -140.18)"/><path class="cls-1" d="M634.27,292.75a8.19,8.19,0,1,0,4.9,10.5A8.19,8.19,0,0,0,634.27,292.75Zm-4.67,12.83a5.46,5.46,0,1,1,7-3.26A5.47,5.47,0,0,1,629.6,305.58Z" transform="translate(-158.75 -140.18)"/><path class="cls-1" d="M701.89,374.67a8.19,8.19,0,1,0,4.9,10.5A8.19,8.19,0,0,0,701.89,374.67Zm-4.67,12.83a5.46,5.46,0,1,1,7-3.26A5.47,5.47,0,0,1,697.22,387.5Z" transform="translate(-158.75 -140.18)"/><path class="cls-1" d="M793.46,333.25a8.2,8.2,0,1,0,4.89,10.5A8.2,8.2,0,0,0,793.46,333.25Zm-4.67,12.83a5.46,5.46,0,1,1,7-3.26A5.47,5.47,0,0,1,788.79,346.08Z" transform="translate(-158.75 -140.18)"/><path class="cls-1" d="M391.54,173.89c-3.59-1.91-7.7-.15-9.18,3.94s.24,8.95,3.83,10.86,7.7.14,9.17-3.95S395.13,175.79,391.54,173.89Zm-4.46,12.33a6,6,0,0,1-2.55-7.24,4.29,4.29,0,0,1,6.12-2.63,6,6,0,0,1,2.55,7.24A4.29,4.29,0,0,1,387.08,186.22Z" transform="translate(-158.75 -140.18)"/><path class="cls-1" d="M539.14,224.7a8.19,8.19,0,1,0,4.9,10.5A8.19,8.19,0,0,0,539.14,224.7Zm-4.67,12.83a5.46,5.46,0,1,1,7-3.26A5.47,5.47,0,0,1,534.47,237.53Z" transform="translate(-158.75 -140.18)"/><path class="cls-1" d="M447.58,275.81a7.4,7.4,0,0,0-10.18,3.92,8.55,8.55,0,0,0,4,10.86,7.4,7.4,0,0,0,10.18-3.92A8.55,8.55,0,0,0,447.58,275.81Zm-5.11,12.31a5.7,5.7,0,0,1-2.7-7.24,5,5,0,0,1,6.79-2.61,5.73,5.73,0,0,1,2.7,7.24A4.94,4.94,0,0,1,442.47,288.12Z" transform="translate(-158.75 -140.18)"/><path class="cls-1" d="M327.69,187.48c-2.22-2.06-5.18-.49-6.62,3.53s-.82,8.94,1.39,11,5.18.48,6.63-3.54S329.9,189.55,327.69,187.48Zm-4.35,12.11c-1.48-1.38-1.9-4.67-.94-7.34s2.94-3.73,4.42-2.35,1.89,4.67.93,7.34S324.81,201,323.34,199.59Z" transform="translate(-158.75 -140.18)"/><path class="cls-1" d="M760.39,408.33c-3.17,3.2-5.14,6.82-4.39,8.07s3.93-.32,7.1-3.53,5.13-6.82,4.38-8.07S763.56,405.13,760.39,408.33Zm2.14,3.6c-1.85,1.86-3.7,2.79-4.14,2.06s.72-2.85,2.56-4.71,3.71-2.79,4.14-2.06S764.38,410.06,762.53,411.93Z" transform="translate(-158.75 -140.18)"/></g></g><g id="Controls"><line class="cls-2" x1="1277.21" y1="250.39" x2="1375.11" y2="208.57"/><line class="cls-3" x1="1375.11" y1="208.57" x2="1539.87" y2="208.57"/><text class="cls-4" transform="translate(1379.72 192.97)"><tspan class="cls-5">R</tspan><tspan x="11.51" y="0">ig</tspan><tspan class="cls-6" x="28.16" y="0">h</tspan><tspan x="39.73" y="0">t</tspan><tspan class="cls-7" x="46.68" y="0"> </tspan><tspan class="cls-8" x="50.27" y="0">T</tspan><tspan class="cls-9" x="59.77" y="0">r</tspan><tspan x="66.72" y="0">igger (</tspan><tspan class="cls-10" x="122.91" y="0">R</tspan><tspan class="cls-11" x="134.4" y="0">T</tspan><tspan x="146.09" y="0">)</tspan></text><line class="cls-2" x1="317.13" y1="235.98" x2="159.35" y2="192.32"/><line class="cls-3" x1="159.35" y1="192.32" x2="15.33" y2="201.54"/><text class="cls-4" transform="translate(23.07 193.94) rotate(-3.67)"><tspan class="cls-12">L</tspan><tspan x="9.62" y="0">e</tspan><tspan class="cls-13" x="20.14" y="0">f</tspan><tspan x="26.5" y="0">t</tspan><tspan class="cls-7" x="33.45" y="0"> </tspan><tspan class="cls-8" x="37.04" y="0">T</tspan><tspan class="cls-14" x="46.54" y="0">r</tspan><tspan class="cls-15" x="53.49" y="0">igger (</tspan><tspan class="cls-16" x="109.68" y="0">L</tspan><tspan class="cls-17" x="117.75" y="0">T</tspan><tspan x="129.44" y="0">)</tspan></text><line class="cls-2" x1="373.18" y1="497.89" x2="410.3" y2="564.48"/><line class="cls-3" x1="556.67" y1="557.1" x2="410.3" y2="564.48"/><text class="cls-4" transform="translate(418.14 556.98) rotate(-2.89)"><tspan class="cls-12">L</tspan><tspan x="9.62" y="0">e</tspan><tspan class="cls-13" x="20.14" y="0">f</tspan><tspan x="26.5" y="0">t But</tspan><tspan class="cls-18" x="67.81" y="0">t</tspan><tspan class="cls-15" x="74.63" y="0">on (LB)</tspan></text><line class="cls-2" x1="1225.43" y1="508.28" x2="1110.1" y2="583.37"/><line class="cls-3" x1="945.5" y1="591.88" x2="1110.1" y2="583.37"/><text class="cls-4" transform="matrix(1, -0.05, 0.05, 1, 946.01, 556.19)"><tspan class="cls-5">R</tspan><tspan x="11.51" y="0">ig</tspan><tspan class="cls-6" x="28.16" y="0">h</tspan><tspan x="39.73" y="0">t But</tspan><tspan class="cls-18" x="81.04" y="0">t</tspan><tspan x="87.86" y="0">on (RB)</tspan><tspan x="0" y="25.2">(Sp</tspan><tspan class="cls-14" x="28.27" y="25.2">r</tspan><tspan class="cls-15" x="35.22" y="25.2">i</tspan><tspan class="cls-6" x="40.13" y="25.2">n</tspan><tspan x="51.7" y="25.2">t)</tspan></text><line class="cls-2" x1="285.76" y1="276.65" x2="163.85" y2="247.1"/><line class="cls-3" x1="163.85" y1="247.1" x2="45.3" y2="254.7"/><text class="cls-4" transform="translate(53.04 247.09) rotate(-3.67)">Y But<tspan class="cls-18" x="45.72" y="0">t</tspan><tspan x="52.54" y="0">on</tspan></text><line class="cls-2" x1="260.47" y1="365.37" x2="118.64" y2="311.91"/><line class="cls-3" x1="118.64" y1="311.91" x2="0.1" y2="319.51"/><text class="cls-4" transform="translate(7.84 311.9) rotate(-3.67)">X But<tspan class="cls-19" x="46.35" y="0">t</tspan><tspan x="53.17" y="0">on</tspan></text><line class="cls-2" x1="1322.15" y1="284.44" x2="1424.87" y2="262.48"/><line class="cls-3" x1="1424.87" y1="262.48" x2="1543.66" y2="262.48"/><text class="cls-4" transform="translate(1434.19 249.93)">B But<tspan class="cls-18" x="45.74" y="0">t</tspan><tspan class="cls-15" x="52.56" y="0">on</tspan></text><line class="cls-2" x1="1345.19" y1="373.51" x2="1433.34" y2="314.9"/><line class="cls-3" x1="1433.34" y1="314.9" x2="1552.12" y2="314.9"/><text class="cls-4" transform="translate(1442.66 302.35)">A But<tspan class="cls-18" x="47.21" y="0">t</tspan><tspan x="54.03" y="0">on</tspan></text><line class="cls-2" x1="398.93" y1="364.23" x2="522.61" y2="425.62"/><line class="cls-3" x1="641.39" y1="425.62" x2="522.61" y2="425.62"/><text class="cls-4" transform="translate(523.95 358.47)"><tspan class="cls-12">L</tspan><tspan x="9.62" y="0">e</tspan><tspan class="cls-13" x="20.14" y="0">f</tspan><tspan x="26.5" y="0">t</tspan><tspan class="cls-7" x="33.45" y="0"> </tspan><tspan class="cls-20" x="37.04" y="0">T</tspan><tspan x="47.33" y="0">humbstick</tspan><tspan x="0" y="25.2">(</tspan><tspan class="cls-21" x="5.96" y="25.2">M</tspan><tspan class="cls-22" x="22.97" y="25.2">o</tspan><tspan class="cls-23" x="34.36" y="25.2">v</tspan><tspan class="cls-24" x="44.25" y="25.2">eme</tspan><tspan class="cls-6" x="82.8" y="25.2">n</tspan><tspan x="94.37" y="25.2">t)</tspan><tspan x="0" y="50.4">(UI N</tspan><tspan class="cls-25" x="42.84" y="50.4">a</tspan><tspan x="52.79" y="50.4">vig</tspan><tspan class="cls-6" x="79.55" y="50.4">a</tspan><tspan class="cls-15" x="89.58" y="50.4">tion)</tspan></text><line class="cls-2" x1="1199.67" y1="375.64" x2="1012.75" y2="403.47"/><line class="cls-3" x1="844.01" y1="401.17" x2="1012.75" y2="403.47"/><text class="cls-4" transform="translate(845.61 369.1) rotate(0.78)"><tspan class="cls-5">R</tspan><tspan x="11.51" y="0">ig</tspan><tspan class="cls-6" x="28.16" y="0">h</tspan><tspan x="39.73" y="0">t</tspan><tspan class="cls-7" x="46.68" y="0"> </tspan><tspan class="cls-20" x="50.27" y="0">T</tspan><tspan class="cls-15" x="60.56" y="0">humbstick</tspan><tspan class="cls-26" x="0" y="25.2">(</tspan><tspan class="cls-8" x="6.97" y="25.2">T</tspan><tspan class="cls-15" x="16.46" y="25.2">u</tspan><tspan class="cls-14" x="28.03" y="25.2">r</tspan><tspan x="34.99" y="25.2">ning)</tspan></text><line class="cls-2" x1="398.93" y1="364.23" x2="522.62" y2="493.1"/><line class="cls-3" x1="724.82" y1="494.59" x2="522.6" y2="494.59"/><text class="cls-4" transform="translate(524.47 459.03)"><tspan class="cls-12">L</tspan><tspan x="9.62" y="0">e</tspan><tspan class="cls-13" x="20.14" y="0">f</tspan><tspan x="26.5" y="0">t</tspan><tspan class="cls-7" x="33.45" y="0"> </tspan><tspan class="cls-20" x="37.04" y="0">T</tspan><tspan x="47.33" y="0">humbstick (</tspan><tspan class="cls-27" x="149.88" y="0">P</tspan><tspan class="cls-23" x="160.71" y="0">r</tspan><tspan x="167.37" y="0">ess)</tspan><tspan x="0" y="25.2">(</tspan><tspan class="cls-21" x="5.96" y="25.2">S</tspan><tspan class="cls-24" x="16.44" y="25.2">ele</tspan><tspan class="cls-28" x="42.44" y="25.2">c</tspan><tspan x="52.12" y="25.2">t)</tspan></text><line class="cls-2" x1="1199.67" y1="375.64" x2="1010.92" y2="475.84"/><line class="cls-3" x1="844.01" y1="475.84" x2="1010.92" y2="475.84"/><text class="cls-4" transform="translate(844.01 437.75)"><tspan class="cls-5">R</tspan><tspan x="11.51" y="0">ig</tspan><tspan class="cls-6" x="28.16" y="0">h</tspan><tspan x="39.73" y="0">t</tspan><tspan class="cls-7" x="46.68" y="0"> </tspan><tspan class="cls-20" x="50.27" y="0">T</tspan><tspan class="cls-15" x="60.56" y="0">humbstick (</tspan><tspan class="cls-27" x="163.11" y="0">P</tspan><tspan class="cls-23" x="173.94" y="0">r</tspan><tspan x="180.6" y="0">ess)</tspan><tspan x="0" y="25.2">(</tspan><tspan class="cls-29" x="5.96" y="25.2">S</tspan><tspan x="16.25" y="25.2">ta</tspan><tspan class="cls-30" x="33.33" y="25.2">r</tspan><tspan x="40.7" y="25.2">t)</tspan></text></g></svg>